<?xml version="1.0" encoding="utf-8" standalone="no"?><svg xmlns:aapt="http://schemas.android.com/aapt" xmlns:android="http://schemas.android.com/apk/res/android" xmlns:app="http://schemas.android.com/apk/res-auto" height="54" width="54" xmlns="http://www.w3.org/2000/svg">
    <path d="M27,27m-27,0a27,27 0,1 1,54 0a27,27 0,1 1,-54 0" fill="" fill-rule="1" stroke="#00000000" stroke-width="1"/>
    <path d="M26.625,20.75m-4.5,0a4.5,4.5 0,1 1,9 0a4.5,4.5 0,1 1,-9 0" fill="#ffffff" fill-rule="1" stroke="#00000000" stroke-width="1"/>
    <path d="M22.5861,27.5955C23.9323,27.0318 25.2785,26.75 26.6247,26.75C27.971,26.75 29.3172,27.0318 30.6634,27.5955C33.2882,28.6946 35.2724,30.9256 36.0577,33.6607L36.2894,34.468C36.6072,35.5748 35.9676,36.7296 34.8608,37.0473C34.6737,37.101 34.4801,37.1283 34.2855,37.1283L18.964,37.1283C17.8125,37.1283 16.8791,36.1948 16.8791,35.0433C16.8791,34.8487 16.9063,34.655 16.96,34.468L17.1918,33.6607C17.9771,30.9255 19.9612,28.6946 22.5861,27.5955Z" fill="#ffffff" fill-rule="1" stroke="#00000000" stroke-width="1"/>
    <path d="M33.75,17.5L39.75,17.5A0.75,0.75 0,0 1,40.5 18.25L40.5,18.25A0.75,0.75 0,0 1,39.75 19L33.75,19A0.75,0.75 0,0 1,33 18.25L33,18.25A0.75,0.75 0,0 1,33.75 17.5z" fill="#ffffff" fill-rule="1" stroke="#00000000" stroke-width="1"/>
    <path d="M37.5,15.25L37.5,21.25A0.75,0.75 0,0 1,36.75 22L36.75,22A0.75,0.75 0,0 1,36 21.25L36,15.25A0.75,0.75 0,0 1,36.75 14.5L36.75,14.5A0.75,0.75 0,0 1,37.5 15.25z" fill="#ffffff" fill-rule="1" stroke="#00000000" stroke-width="1"/>
</svg>