<?xml version="1.0" encoding="UTF-8"?>
<svg xmlns="http://www.w3.org/2000/svg" xmlns:xlink="http://www.w3.org/1999/xlink" width="32px" height="32px" viewBox="0 0 32 32" version="1.1">
<g id="surface1">
<path style="fill:none;stroke-width:1;stroke-linecap:butt;stroke-linejoin:miter;stroke:rgb(0%,0%,0%);stroke-opacity:1;stroke-miterlimit:4;" d="M 5.499023 11.000977 C 6.328125 11.000977 6.999023 11.671875 6.999023 12.500977 C 6.999023 13.327148 6.328125 14.000977 5.499023 14.000977 C 4.672852 14.000977 3.999023 13.327148 3.999023 12.500977 C 3.999023 11.671875 4.672852 11.000977 5.499023 11.000977 Z M 12 11.000977 C 12.829102 11.000977 13.5 11.671875 13.5 12.500977 C 13.5 13.327148 12.829102 14.000977 12 14.000977 C 11.170898 14.000977 10.5 13.327148 10.5 12.500977 C 10.5 11.671875 11.170898 11.000977 12 11.000977 Z M 18.500977 11.000977 C 19.327148 11.000977 20.000977 11.671875 20.000977 12.500977 C 20.000977 13.327148 19.327148 14.000977 18.500977 14.000977 C 17.671875 14.000977 17.000977 13.327148 17.000977 12.500977 C 17.000977 11.671875 17.671875 11.000977 18.500977 11.000977 Z M 18.500977 11.000977 " transform="matrix(1.333333,0,0,1.333333,0,0)"/>
</g>
</svg>
