<?xml version="1.0" encoding="UTF-8"?>
<svg xmlns="http://www.w3.org/2000/svg" xmlns:xlink="http://www.w3.org/1999/xlink" width="32px" height="32px" viewBox="0 0 32 32" version="1.1">
<g id="surface1">
<path style="fill:none;stroke-width:1;stroke-linecap:butt;stroke-linejoin:miter;stroke:rgb(100%,100%,100%);stroke-opacity:1;stroke-miterlimit:4;" d="M 5.499232 11.001472 C 6.326523 11.001472 6.997381 11.67233 6.997381 12.499621 C 6.997381 13.329921 6.326523 14.000779 5.499232 14.000779 C 4.67194 14.000779 3.998074 13.329921 3.998074 12.499621 C 3.998074 11.67233 4.67194 11.001472 5.499232 11.001472 Z M 12.000238 11.001472 C 12.82753 11.001472 13.498388 11.67233 13.498388 12.499621 C 13.498388 13.329921 12.82753 14.000779 12.000238 14.000779 C 11.172947 14.000779 10.502089 13.329921 10.502089 12.499621 C 10.502089 11.67233 11.172947 11.001472 12.000238 11.001472 Z M 18.504253 11.001472 C 19.328536 11.001472 19.999394 11.67233 19.999394 12.499621 C 19.999394 13.329921 19.328536 14.000779 18.504253 14.000779 C 17.673953 14.000779 17.003095 13.329921 17.003095 12.499621 C 17.003095 11.67233 17.673953 11.001472 18.504253 11.001472 Z M 18.504253 11.001472 " transform="matrix(1.298477,0,0,1.298477,0,0)"/>
</g>
</svg>
