<?xml version="1.0" encoding="utf-8" standalone="no"?><svg xmlns:aapt="http://schemas.android.com/aapt" xmlns:android="http://schemas.android.com/apk/res/android" xmlns:app="http://schemas.android.com/apk/res-auto" height="26" width="26" xmlns="http://www.w3.org/2000/svg">
    <path d="M13,2C6.928,2 2,6.928 2,13C2,19.072 6.928,24 13,24C19.072,24 24,19.072 24,13C24,6.928 19.072,2 13,2Z" fill="#1194ff" fill-rule="1"/>
    <path d="M10.945,19.4167L6.4109,14.8826C5.9999,14.4716 5.9999,13.8051 6.4109,13.3941C6.8221,12.9829 7.4887,12.9824 7.9004,13.3931L10.945,16.4291L10.945,16.4291L18.2106,9.1636C18.6216,8.7525 19.288,8.7525 19.6991,9.1636C19.6999,9.1644 19.7008,9.1653 19.7017,9.1662C20.1132,9.5806 20.112,10.2497 19.6991,10.6626L10.945,19.4167L10.945,19.4167Z" fill="#fff" fill-rule="1"/>
</svg>