<?xml version="1.0" encoding="utf-8" standalone="no"?><svg xmlns:aapt="http://schemas.android.com/aapt" xmlns:android="http://schemas.android.com/apk/res/android" xmlns:app="http://schemas.android.com/apk/res-auto" height="54" width="54" xmlns="http://www.w3.org/2000/svg">
    <path d="M27,27m-27,0a27,27 0,1 1,54 0a27,27 0,1 1,-54 0" fill="" fill-rule="1" stroke="#00000000" stroke-width="1"/>
    <path d="M32.125,15C34.8174,15 37,17.1826 37,19.875L37,34.125C37,36.8174 34.8174,39 32.125,39L18,39C17.4477,39 17,38.5523 17,38L17,16C17,15.4477 17.4477,15 18,15L32.125,15ZM21.6368,23.1106C21.2502,24.1129 22.2054,26.1581 24.3017,28.7572C26.3979,31.3562 29.949,32.738 30.9155,32.3004C31.882,31.8628 32.0891,30.917 32.0477,30.4794C32.0063,30.0418 29.8109,28.7007 29.2586,28.4466C28.7063,28.1925 28.0711,29.0113 27.7674,29.3642C27.4498,29.703 26.2347,28.6725 25.71,28.1502C25.71,28.1502 24.3293,26.5691 24.6468,26.2304C24.9644,25.8916 25.7515,25.214 25.4753,24.6634C25.1991,24.1129 23.8046,21.9107 23.3627,21.8825C22.9347,21.8543 22.0234,22.1084 21.6368,23.1106Z" fill="#ffffff" fill-rule="1" stroke="#00000000" stroke-width="1"/>
</svg>