<?xml version="1.0" encoding="utf-8" standalone="no"?><svg xmlns:aapt="http://schemas.android.com/aapt" xmlns:android="http://schemas.android.com/apk/res/android" xmlns:app="http://schemas.android.com/apk/res-auto" height="24" width="24" xmlns="http://www.w3.org/2000/svg">
    <path d="M24,12c0,6.627 -5.373,12 -12,12S0,18.627 0,12 5.373,0 12,0s12,5.373 12,12" fill="#f4f5f7" fill-rule="1"/>
    <path d="M11.999,9.5c-1.473,0 -2.666,1.194 -2.666,2.667 0,1.473 1.193,2.665 2.666,2.665C13.472,14.833 14.666,13.639 14.666,12.166 14.666,10.693 13.472,9.5 11.999,9.5m0,1.2c0.81,0 1.467,0.659 1.467,1.468 0,0.809 -0.658,1.466 -1.467,1.466s-1.467,-0.658 -1.467,-1.467 0.658,-1.466 1.467,-1.466" fill="#001a33" fill-rule="1"/>
    <path d="M13.266,5.333L10.733,5.333c-1.9,0 -1.548,1.845 -2.252,1.845h-0.703C6.612,7.178 5.666,8.004 5.666,9.023v6.798c0,1.019 0.946,1.845 2.112,1.845h8.444c1.166,0 2.111,-0.826 2.111,-1.845L18.333,9.023c0,-1.019 -0.945,-1.845 -2.111,-1.845h-0.704C15.008,7.178 15.166,5.333 13.266,5.333m0,1.2c0.457,0 0.529,0.122 0.76,0.637 0.162,0.362 0.541,1.208 1.492,1.208h0.704c0.485,0 0.911,0.301 0.911,0.645v6.798c0,0.344 -0.426,0.645 -0.911,0.645L7.778,16.466c-0.486,0 -0.911,-0.301 -0.911,-0.645L6.867,9.023c0,-0.344 0.425,-0.645 0.911,-0.645h0.703c1.052,0 1.453,-0.92 1.625,-1.313 0.21,-0.482 0.231,-0.532 0.627,-0.532L13.266,6.533" fill="#001a33" fill-rule="1"/>
</svg>