<?xml version="1.0" encoding="UTF-8"?>
<svg xmlns="http://www.w3.org/2000/svg" xmlns:xlink="http://www.w3.org/1999/xlink" width="20px" height="18px" viewBox="0 0 20 18" version="1.1">
<defs>
<linearGradient id="linear0" gradientUnits="userSpaceOnUse" x1="0" y1="1" x2="1" y2="0" gradientTransform="matrix(17.809245,0,0,15.579241,1.061198,1.091518)">
<stop offset="0" style="stop-color:rgb(0%,59.607843%,96.862745%);stop-opacity:1;"/>
<stop offset="1" style="stop-color:rgb(7.058824%,66.666667%,94.901961%);stop-opacity:1;"/>
</linearGradient>
</defs>
<g id="surface1">
<path style=" stroke:none;fill-rule:nonzero;fill:url(#linear0);" d="M 5.175781 1.089844 C 4.386719 1.089844 3.738281 1.753906 3.738281 2.570312 L 3.738281 4.375 L 1.75 4.375 C 1.371094 4.375 1.0625 4.695312 1.0625 5.082031 C 1.0625 5.472656 1.371094 5.789062 1.75 5.789062 L 3.738281 5.789062 L 3.738281 8.171875 L 1.75 8.171875 C 1.371094 8.171875 1.0625 8.492188 1.0625 8.882812 C 1.0625 9.269531 1.371094 9.589844 1.75 9.589844 L 3.738281 9.589844 L 3.738281 11.972656 L 1.75 11.972656 C 1.371094 11.972656 1.0625 12.289062 1.0625 12.679688 C 1.0625 13.070312 1.371094 13.386719 1.75 13.386719 L 3.738281 13.386719 L 3.738281 15.191406 C 3.738281 16.007812 4.386719 16.671875 5.175781 16.671875 L 17.433594 16.671875 C 18.226562 16.671875 18.871094 16.007812 18.871094 15.191406 L 18.871094 2.570312 C 18.871094 1.753906 18.226562 1.089844 17.433594 1.089844 "/>
<path style=" stroke:none;fill-rule:nonzero;fill:rgb(100%,100%,100%);fill-opacity:1;" d="M 1.0625 5.082031 Z M 9.1875 4.890625 C 8.710938 4.890625 8.328125 5.285156 8.328125 5.777344 C 8.328125 6.265625 8.710938 6.660156 9.1875 6.660156 C 9.660156 6.660156 10.046875 6.265625 10.046875 5.777344 C 10.046875 5.285156 9.660156 4.890625 9.1875 4.890625 Z M 14.675781 8.25 C 14.058594 7.488281 12.957031 7.378906 12.210938 8.015625 C 12.148438 8.070312 12.089844 8.125 12.035156 8.191406 L 11.328125 8.988281 C 11.082031 9.265625 10.671875 9.28125 10.40625 9.035156 C 10.398438 9.023438 10.386719 9.011719 10.378906 9.003906 L 10.28125 8.898438 C 9.804688 8.398438 9.035156 8.351562 8.503906 8.796875 L 8.324219 8.953125 C 7.757812 9.433594 7.433594 10.144531 7.433594 10.898438 C 7.433594 11.613281 7.992188 12.191406 8.683594 12.191406 L 14.609375 12.191406 C 15.300781 12.191406 15.867188 11.613281 15.867188 10.898438 C 15.867188 10.140625 15.609375 9.410156 15.140625 8.828125 Z M 14.675781 8.25 "/>
</g>
</svg>
