<?xml version="1.0" encoding="utf-8" standalone="no"?><svg xmlns:aapt="http://schemas.android.com/aapt" xmlns:android="http://schemas.android.com/apk/res/android" xmlns:app="http://schemas.android.com/apk/res-auto" height="24" width="24" xmlns="http://www.w3.org/2000/svg">
    <path d="M10,2.9C8.659,2.9 7.6769,3.4662 7.0504,4.3372C6.4427,5.182 6.2,6.2675 6.2,7.3C6.2,8.7944 6.5736,9.9935 7.2614,10.8309C7.9583,11.6793 8.9333,12.1 10,12.1C11.0667,12.1 12.0418,11.6793 12.7386,10.8309C13.4265,9.9935 13.8,8.7944 13.8,7.3C13.8,6.2675 13.5573,5.182 12.9496,4.3372C12.3231,3.4662 11.341,2.9 10,2.9ZM10,13.4C7.4899,13.4 5.5966,14.0815 4.2687,15.1742C2.956,16.2545 2.2411,17.7001 2.0136,19.1651C1.716,20.179 2.558,21.1 3.5,21.1H16.6C17.6633,21.1 18.2366,20.0697 18.0918,19.2014L18.0919,19.2014L18.09,19.1908C17.8175,17.7196 17.0782,16.261 15.7414,15.1723C14.4026,14.0819 12.511,13.4 10,13.4ZM19.5,6.4C19.8314,6.4 20.1,6.6687 20.1,7V9.4H22.5C22.8314,9.4 23.1,9.6686 23.1,10C23.1,10.3314 22.8314,10.6 22.5,10.6H20.1V13C20.1,13.3314 19.8314,13.6 19.5,13.6C19.1686,13.6 18.9,13.3314 18.9,13V10.6H16.5C16.1686,10.6 15.9,10.3314 15.9,10C15.9,9.6686 16.1686,9.4 16.5,9.4H18.9V7C18.9,6.6687 19.1686,6.4 19.5,6.4Z" fill="#767676" fill-rule="1"/>
</svg>