<?xml version="1.0" encoding="utf-8" standalone="no"?><svg xmlns:aapt="http://schemas.android.com/aapt" xmlns:android="http://schemas.android.com/apk/res/android" xmlns:app="http://schemas.android.com/apk/res-auto" height="24" width="24" xmlns="http://www.w3.org/2000/svg">
    <path d="M18.2,2.8C18.5314,2.8 18.8,3.0686 18.8,3.4V5.1H20.4C20.7314,5.1 21,5.3686 21,5.7C21,6.0314 20.7314,6.3 20.4,6.3H18.8V8C18.8,8.3314 18.5314,8.6 18.2,8.6C17.8686,8.6 17.6,8.3314 17.6,8V6.3H15.9C15.5686,6.3 15.3,6.0314 15.3,5.7C15.3,5.3686 15.5686,5.1 15.9,5.1H17.6V3.4C17.6,3.0686 17.8686,2.8 18.2,2.8ZM8.8,7.5C8.8,6.1349 9.8233,5.1 11,5.1C12.1767,5.1 13.2,6.1349 13.2,7.5C13.2,8.8651 12.1767,9.9 11,9.9C9.8233,9.9 8.8,8.8651 8.8,7.5ZM11,3.9C9.0839,3.9 7.6,5.5514 7.6,7.5C7.6,9.4486 9.0839,11.1 11,11.1C12.9161,11.1 14.4,9.4486 14.4,7.5C14.4,5.5514 12.9161,3.9 11,3.9ZM5.227,18.4538C5.0455,18.1513 4.9741,17.7457 5.078,17.3611C5.6006,15.5383 7.5504,13.6 11,13.6C14.3441,13.6 16.2979,15.5332 16.822,17.3612C16.9259,17.7457 16.8545,18.1513 16.673,18.4538C16.4909,18.7573 16.2399,18.9 16,18.9H5.9C5.6601,18.9 5.4091,18.7573 5.227,18.4538ZM11,12.4C7.0519,12.4 4.602,14.659 3.9231,17.0352L3.923,17.0351L3.9211,17.0421C3.7263,17.7566 3.855,18.4995 4.198,19.0712C4.5409,19.6426 5.1399,20.1 5.9,20.1H16C16.7601,20.1 17.3591,19.6426 17.702,19.0712C18.045,18.4995 18.1737,17.7566 17.9789,17.0421L17.9789,17.0421L17.9769,17.0352C17.2995,14.6642 14.8537,12.4 11,12.4Z" fill="#000" fill-rule="1"/>
</svg>