<?xml version="1.0" encoding="utf-8" standalone="no"?><svg xmlns:aapt="http://schemas.android.com/aapt" xmlns:android="http://schemas.android.com/apk/res/android" xmlns:app="http://schemas.android.com/apk/res-auto" height="24" width="24" xmlns="http://www.w3.org/2000/svg">
    <path d="M19.326,5.102V4.78c0,-1.498 -1.283,-2.781 -2.78,-2.781H6.92C5.422,2 4.139,3.283 4.139,4.78v0.322C2.856,5.743 2,7.027 2,8.524v9.626C2,20.289 3.711,22 5.85,22h11.765c2.139,0 3.85,-1.711 3.85,-3.85V8.524c0,-1.497 -0.855,-2.78 -2.139,-3.422zM6.92,3.283h9.626c0.855,0 1.497,0.642 1.497,1.39H5.422c0,-0.748 0.642,-1.39 1.498,-1.39zM20.182,18.15c0,1.39 -1.177,2.567 -2.567,2.567H5.85c-1.39,0 -2.567,-1.177 -2.567,-2.567V8.524c0,-1.39 1.177,-2.567 2.567,-2.567h11.765c1.39,0 2.567,1.177 2.567,2.567v9.626z" fill="#848c94"/>
    <path d="M15.262,9.914c-0.214,-0.213 -0.642,-0.213 -0.856,0l-2.673,2.567 -2.567,-2.567c-0.321,-0.32 -0.642,-0.32 -0.963,0 -0.214,0.214 -0.214,0.642 0,0.856l2.567,2.567 -2.567,2.567c-0.214,0.214 -0.214,0.642 0,0.855 0.107,0.107 0.321,0.214 0.428,0.214 0.107,0 0.32,-0.107 0.428,-0.214l2.567,-2.566 2.567,2.566c0.107,0.107 0.32,0.214 0.427,0.214 0.107,0 0.321,-0.107 0.428,-0.214 0.214,-0.213 0.214,-0.641 0,-0.855l-2.46,-2.567 2.567,-2.567c0.32,-0.214 0.32,-0.642 0.107,-0.856z" fill="#848c94"/>
</svg>