<?xml version="1.0" encoding="utf-8" standalone="no"?><svg xmlns:aapt="http://schemas.android.com/aapt" xmlns:android="http://schemas.android.com/apk/res/android" xmlns:app="http://schemas.android.com/apk/res-auto" height="24" width="24" xmlns="http://www.w3.org/2000/svg">
    <path d="M18.498,3.9999V4.0354C19.6739,4.7158 20.4712,5.9778 20.4968,7.4279C21.4232,8.3355 21.998,9.6005 21.998,10.9999V17.9999C21.998,20.7613 19.7595,22.9999 16.998,22.9999H6.9981C4.2366,22.9999 1.998,20.7613 1.998,17.9999V10.9999C1.998,9.6001 2.5732,8.3347 3.5002,7.4271L3.498,7.4285C3.5234,5.9776 4.3213,4.7151 5.4981,4.0346V3.9999C5.4981,2.343 6.8412,0.9999 8.498,0.9999H15.498C17.1549,0.9999 18.498,2.343 18.498,3.9999ZM8.498,2.1999H15.498C16.344,2.1999 17.0536,2.7834 17.2464,3.5699C17.0038,3.5239 16.7534,3.4999 16.4974,3.4999H7.4974C7.2419,3.4999 6.992,3.5238 6.7498,3.5696C6.9427,2.7833 7.6522,2.1999 8.498,2.1999ZM16.4974,4.6999H7.4974C6.3179,4.6999 5.3088,5.4292 4.8963,6.4615L4.895,6.4623C5.5343,6.1655 6.2468,5.9999 6.9981,5.9999H16.998C17.7482,5.9999 18.4598,6.1651 19.0984,6.4611C18.6858,5.429 17.6768,4.6999 16.4974,4.6999ZM6.9981,7.1999H16.998C19.0967,7.1999 20.798,8.9012 20.798,10.9999V17.9999C20.798,20.0986 19.0967,21.7999 16.998,21.7999H6.9981C4.8994,21.7999 3.1981,20.0986 3.1981,17.9999V10.9999C3.1981,8.9012 4.8994,7.1999 6.9981,7.1999Z" fill="#848c94" fill-opacity="1.0" fill-rule="evenodd" />
    <path d="M15.998,14.7107C15.998,16.9198 14.2072,18.7107 11.998,18.7107C9.7889,18.7107 7.9981,16.9198 7.9981,14.7107C7.9981,12.5016 9.7889,10.7107 11.998,10.7107C14.2072,10.7107 15.998,12.5016 15.998,14.7107ZM13.593,17.0123C13.1404,17.3265 12.5907,17.5107 11.998,17.5107C10.4516,17.5107 9.198,16.2571 9.198,14.7107C9.198,14.118 9.3822,13.5683 9.6964,13.1157L13.593,17.0123ZM14.3,16.3052L10.4036,12.4087C10.8561,12.0947 11.4056,11.9107 11.998,11.9107C13.5444,11.9107 14.798,13.1643 14.798,14.7107C14.798,15.3032 14.614,15.8527 14.3,16.3052Z" fill="#fe5050" fill-opacity="1.0" fill-rule="evenodd"/>
</svg>