<?xml version="1.0" encoding="utf-8" standalone="no"?><svg xmlns:aapt="http://schemas.android.com/aapt" xmlns:android="http://schemas.android.com/apk/res/android" xmlns:app="http://schemas.android.com/apk/res-auto" height="24" width="24" xmlns="http://www.w3.org/2000/svg">
    <path d="M9,3.6c0,-0.931 0.769,-1.7 1.7,-1.7h2.7c0.931,0 1.7,0.769 1.7,1.7v0.769l5.304,0.031c0.33,0.002 0.598,0.272 0.596,0.604 -0.002,0.33 -0.272,0.598 -0.604,0.596l-16.9,-0.1c-0.33,-0.002 -0.598,-0.272 -0.596,-0.604 0.002,-0.33 0.272,-0.598 0.604,-0.596L9,4.333L9,3.6zM13.9,3.6v0.762l-3.7,-0.022L10.2,3.6c0,-0.269 0.231,-0.5 0.5,-0.5h2.7c0.269,0 0.5,0.231 0.5,0.5zM6.099,6.96c-0.022,-0.33 -0.308,-0.58 -0.639,-0.559 -0.33,0.022 -0.58,0.308 -0.559,0.639l0.8,12.08C5.71,20.728 6.96,22.1 8.7,22.1h6.5c1.624,0 2.988,-1.357 3,-2.98l0.799,-12.08c0.021,-0.331 -0.229,-0.617 -0.56,-0.639 -0.33,-0.022 -0.616,0.229 -0.638,0.56l-0.8,12.1L17,19.1c0,0.969 -0.831,1.8 -1.8,1.8L8.7,20.9c-1.052,0 -1.8,-0.815 -1.8,-1.8l-0.001,-0.04 -0.8,-12.1z" fill="#848c94" fill-rule="evenodd"/>
</svg>