<?xml version="1.0" encoding="utf-8" standalone="no"?><svg xmlns:aapt="http://schemas.android.com/aapt" xmlns:android="http://schemas.android.com/apk/res/android" xmlns:app="http://schemas.android.com/apk/res-auto" height="24" width="24" xmlns="http://www.w3.org/2000/svg">
    <path d="M13.529,2.916l8.787,15.478c0.748,1.216 -0.17,2.706 -1.516,2.706L3,21.1c-1.346,0 -2.265,-1.493 -1.514,-2.709l8.987,-15.478c0.627,-1.218 2.43,-1.217 3.056,0.003zM12.463,3.468c-0.178,-0.357 -0.747,-0.357 -0.926,0l-0.018,0.033 -9,15.5 -0.01,0.017c-0.239,0.382 0.04,0.882 0.491,0.882h17.8c0.45,0 0.73,-0.5 0.491,-0.882l-0.013,-0.022 -8.8,-15.5 -0.015,-0.028zM12,7.3c0.442,0 0.8,0.358 0.8,0.8v5.5c0,0.442 -0.358,0.8 -0.8,0.8 -0.442,0 -0.8,-0.358 -0.8,-0.8L11.2,8.1c0,-0.442 0.358,-0.8 0.8,-0.8zM13.4,17.1c0,0.773 -0.627,1.4 -1.4,1.4 -0.773,0 -1.4,-0.627 -1.4,-1.4 0,-0.773 0.627,-1.4 1.4,-1.4 0.773,0 1.4,0.627 1.4,1.4z" fill="#848c94" fill-rule="1"/>
</svg>