<?xml version="1.0" encoding="utf-8" standalone="no"?><svg xmlns:aapt="http://schemas.android.com/aapt" xmlns:android="http://schemas.android.com/apk/res/android" xmlns:app="http://schemas.android.com/apk/res-auto" height="24" width="24" xmlns="http://www.w3.org/2000/svg">
    <path d="M10.8231,12.3623C12.029,12.3623 13.2348,12.6232 14.4407,13.1451C16.6397,14.0967 18.2979,15.9817 18.9614,18.284L19.1719,19.0144C19.4444,19.9601 18.8987,20.9476 17.953,21.2202C17.7926,21.2664 17.6265,21.2899 17.4595,21.2899L4.1866,21.2899C3.2025,21.2899 2.4046,20.492 2.4046,19.5079C2.4046,19.3409 2.4281,19.1748 2.4743,19.0144L2.6848,18.284C3.3483,15.9817 5.0065,14.0967 7.2054,13.1451C8.4113,12.6232 9.6172,12.3623 10.8231,12.3623ZM10.8231,13.6623C9.7989,13.6623 8.7681,13.8854 7.7217,14.3382C5.8793,15.1355 4.4899,16.7149 3.934,18.644L3.7235,19.3744C3.711,19.4178 3.7046,19.4627 3.7046,19.5079C3.7046,19.7741 3.9204,19.9899 4.1866,19.9899L17.4595,19.9899C17.5047,19.9899 17.5496,19.9835 17.593,19.971C17.8488,19.8973 17.9964,19.6302 17.9227,19.3744L17.7122,18.644C17.1563,16.7149 15.7669,15.1355 13.9244,14.3382C12.8781,13.8854 11.8473,13.6623 10.8231,13.6623ZM11.0632,2.2783C13.4075,2.2783 15.3079,4.22 15.3079,6.6152C15.3079,9.0105 13.4075,10.9522 11.0632,10.9522C8.719,10.9522 6.8186,9.0105 6.8186,6.6152C6.8186,4.22 8.719,2.2783 11.0632,2.2783ZM11.0632,3.5783C9.4433,3.5783 8.1186,4.9318 8.1186,6.6152C8.1186,8.2987 9.4433,9.6522 11.0632,9.6522C12.6832,9.6522 14.0079,8.2987 14.0079,6.6152C14.0079,4.9318 12.6832,3.5783 11.0632,3.5783ZM20.4489,1.8188L20.5295,1.8116C20.7494,1.8116 20.9324,1.9687 20.9703,2.176L20.9775,2.2558L20.9768,4.5206L23.2391,4.521C23.459,4.521 23.642,4.6782 23.6799,4.8854L23.6871,4.9653C23.6871,5.1833 23.5286,5.3647 23.3196,5.4023L23.2391,5.4095L20.9768,5.4086L20.9775,7.6747C20.9775,7.8928 20.819,8.0741 20.61,8.1118L20.5295,8.1189C20.3095,8.1189 20.1266,7.9618 20.0886,7.7545L20.0814,7.6747L20.0808,5.4086L17.8199,5.4095C17.5999,5.4095 17.417,5.2523 17.379,5.0451L17.3718,4.9653C17.3718,4.7472 17.5303,4.5658 17.7393,4.5282L17.8199,4.521L20.0808,4.5206L20.0814,2.2558C20.0814,2.0377 20.2399,1.8564 20.4489,1.8188L20.5295,1.8116Z" fill="#fff" fill-rule="0" stroke="#00000000" stroke-width="1"/>
</svg>