<?xml version="1.0" encoding="utf-8" standalone="no"?><svg xmlns:aapt="http://schemas.android.com/aapt" xmlns:android="http://schemas.android.com/apk/res/android" xmlns:app="http://schemas.android.com/apk/res-auto" height="24" width="24" xmlns="http://www.w3.org/2000/svg">
    <path d="M21.0888,17.3243C20.9677,16.0401 16.2783,13.5762 16.2304,13.5547C14.9873,12.9786 13.8398,14.334 13.2246,15.0586L13.207,15.0791C12.2586,14.6267 11.4049,13.998 10.6914,13.2266C10.0252,12.5179 9.4737,11.7097 9.0566,10.8311L9.1718,10.7129C9.8486,10.0284 10.9814,8.8848 10.3964,7.7227C10.373,7.6758 7.789,2.9883 6.4824,2.9044C5.7422,2.9003 5.0189,3.1255 4.4118,3.549C3.8047,3.9725 3.3436,4.5735 3.0918,5.2696C2.2832,7.3633 3.6572,11.7667 7.8496,16.1329C11.3584,19.7862 15.0771,21.1377 17.3886,21.1377C17.9081,21.1536 18.4252,21.0615 18.9072,20.8672C19.5861,20.5661 20.1579,20.0664 20.5473,19.434C20.9368,18.8016 21.1255,18.0661 21.0888,17.3243ZM18.413,19.7735C17.1406,20.3497 12.8544,19.6114 8.7148,15.3008C4.29,10.6934 3.7695,6.8438 4.2109,5.7022C4.3617,5.2537 4.6427,4.8602 5.018,4.572C5.3934,4.2838 5.846,4.1139 6.3183,4.0841C6.871,4.3409 8.7959,7.2091 9.3242,8.2618C9.5214,8.6534 8.6787,9.5049 8.3193,9.8682L8.083,10.1104C7.8642,10.3438 7.1972,11.0538 9.8173,14.0469C10.1962,14.4229 12.1328,16.2882 13.2861,16.2882H13.3046C13.4398,16.2888 13.5736,16.261 13.6973,16.2065C13.821,16.152 13.9317,16.072 14.0224,15.9717L14.1386,15.836C14.4296,15.4942 15.3115,14.4532 15.7294,14.6446C17.2295,15.3967 18.6285,16.3351 19.8935,17.4376C19.9058,17.9298 19.7717,18.4146 19.5081,18.8304C19.2445,19.2463 18.8634,19.5745 18.413,19.7735Z" fill="#767676"/>
</svg>