<?xml version="1.0" encoding="utf-8" standalone="no"?><svg xmlns:aapt="http://schemas.android.com/aapt" xmlns:android="http://schemas.android.com/apk/res/android" xmlns:app="http://schemas.android.com/apk/res-auto" height="16" width="16" xmlns="http://www.w3.org/2000/svg">
    <path d="M13.435,3.4l-0.2,-0.2c-0.266,-0.267 -0.8,-0.267 -1.066,0l-0.667,0.667c-0.067,0.066 -0.067,0.133 0,0.2l1,1.066c0.067,0.067 0.133,0.067 0.2,0l0.667,-0.666c0.333,-0.334 0.333,-0.8 0.066,-1.067zM4.902,13l-1.467,0.6c-0.266,0.067 -0.533,-0.2 -0.4,-0.4l0.6,-1.467L10.702,4.6c0.067,-0.067 0.133,-0.067 0.2,0l1.067,1.067c0.067,0.066 0.067,0.133 0,0.2L4.902,13z" fill="#848c94" fill-rule="1"/>
</svg>