<?xml version="1.0" encoding="utf-8" standalone="no"?><svg xmlns:aapt="http://schemas.android.com/aapt" xmlns:android="http://schemas.android.com/apk/res/android" xmlns:app="http://schemas.android.com/apk/res-auto" height="24" width="24" xmlns="http://www.w3.org/2000/svg">
    <path d="M18.3243,4.2243C18.3863,4.1623 18.5191,4.1 18.7,4.1C18.8809,4.1 19.0137,4.1623 19.0757,4.2243L19.7757,4.9243C19.8378,4.9863 19.9,5.1191 19.9,5.3C19.9,5.4809 19.8378,5.6137 19.7757,5.6758L18.7,6.7515L17.2485,5.3L18.3243,4.2243ZM15.9782,4.8733L17.4757,3.3758C17.8137,3.0378 18.2809,2.9 18.7,2.9C19.1191,2.9 19.5863,3.0378 19.9243,3.3758L20.6243,4.0758C20.9623,4.4137 21.1,4.8809 21.1,5.3C21.1,5.7191 20.9623,6.1863 20.6243,6.5243L19.1243,8.0243C19.1235,8.0251 19.1226,8.0259 19.1218,8.0267L8.0243,19.1243L8.0027,19.1458C7.8165,19.3326 7.5363,19.6134 7.1134,19.7612L4.046,21.0475C3.3446,21.3755 2.6245,20.6554 2.9525,19.9541L4.2389,16.8866C4.3866,16.4637 4.6675,16.1835 4.8542,15.9973L4.8757,15.9757L15.9757,4.8758C15.9766,4.8749 15.9774,4.8741 15.9782,4.8733ZM5.7243,16.8243L16.4,6.1485L17.8515,7.6L7.1757,18.2757C6.9651,18.4864 6.8573,18.5818 6.7103,18.6308C6.696,18.6356 6.6819,18.6409 6.668,18.6467L4.4039,19.5962L5.3533,17.332C5.3591,17.3182 5.3644,17.304 5.3692,17.2897C5.4182,17.1427 5.5136,17.035 5.7243,16.8243Z" fill="#767676" fill-rule="1"/>
</svg>