<?xml version="1.0" encoding="UTF-8"?>
<svg xmlns="http://www.w3.org/2000/svg" xmlns:xlink="http://www.w3.org/1999/xlink" width="20px" height="15px" viewBox="0 0 19 15" version="1.1">
<g id="surface1">
<path style=" stroke:none;fill-rule:nonzero;fill:rgb(0%,0%,0%);fill-opacity:1;" d="M 3.550781 4.417969 C 3.550781 5.945312 4.765625 7.183594 6.265625 7.183594 C 7.769531 7.183594 8.984375 5.945312 8.984375 4.417969 C 8.984375 2.890625 7.769531 1.65625 6.265625 1.65625 C 4.765625 1.65625 3.550781 2.890625 3.550781 4.417969 Z M 3.550781 4.417969 "/>
<path style=" stroke:none;fill-rule:nonzero;fill:rgb(0%,0%,0%);fill-opacity:1;" d="M 1.222656 12.078125 C 2.035156 9.628906 3.722656 8.402344 6.28125 8.402344 C 8.839844 8.402344 10.523438 9.628906 11.339844 12.078125 C 11.429688 12.355469 11.386719 12.65625 11.222656 12.894531 C 11.058594 13.128906 10.792969 13.269531 10.511719 13.269531 L 2.050781 13.269531 C 1.769531 13.269531 1.503906 13.128906 1.339844 12.894531 C 1.175781 12.65625 1.128906 12.355469 1.222656 12.078125 Z M 1.222656 12.078125 "/>
<path style=" stroke:none;fill-rule:nonzero;fill:rgb(0%,0%,0%);fill-opacity:1;" d="M 10.433594 5.667969 C 10.433594 6.953125 11.425781 7.996094 12.648438 7.996094 C 13.871094 7.996094 14.863281 6.953125 14.863281 5.667969 C 14.863281 4.382812 13.871094 3.339844 12.648438 3.339844 C 11.425781 3.339844 10.433594 4.382812 10.433594 5.667969 Z M 10.433594 5.667969 "/>
<path style=" stroke:none;fill-rule:nonzero;fill:rgb(0%,0%,0%);fill-opacity:1;" d="M 10.804688 9.722656 C 10.316406 9.199219 12.019531 9.148438 12.742188 9.148438 C 14.894531 9.148438 16.3125 10.195312 17 12.292969 C 17.078125 12.53125 17.039062 12.792969 16.898438 12.996094 C 16.753906 13.199219 16.527344 13.320312 16.28125 13.320312 L 12.882812 13.320312 C 12.59375 13.320312 12.351562 13.105469 12.304688 12.8125 C 12.128906 11.632812 11.628906 10.605469 10.804688 9.722656 Z M 10.804688 9.722656 "/>
</g>
</svg>
