<?xml version="1.0" encoding="utf-8" standalone="no"?><svg xmlns:aapt="http://schemas.android.com/aapt" xmlns:android="http://schemas.android.com/apk/res/android" xmlns:app="http://schemas.android.com/apk/res-auto" height="25" width="24" xmlns="http://www.w3.org/2000/svg">
    <path d="M14.6781,11.8558C14.892,11.6419 15.3198,11.6419 15.5337,11.8558C15.7476,12.0697 15.7476,12.4975 15.4268,12.7114L12.8599,15.2782L15.3198,17.8451C15.5337,18.059 15.5337,18.4868 15.3198,18.7007C15.2128,18.8076 14.9989,18.9146 14.892,18.9146C14.785,18.9146 14.5711,18.8076 14.4642,18.7007L11.8973,16.1338L9.3305,18.7007C9.2235,18.8076 9.0096,18.9146 8.9027,18.9146C8.7957,18.9146 8.5818,18.8076 8.4749,18.7007C8.261,18.4868 8.261,18.059 8.4749,17.8451L11.0417,15.2782L8.4749,12.7114C8.261,12.4975 8.261,12.0697 8.4749,11.8558C8.7957,11.5349 9.1166,11.5349 9.4375,11.8558L12.0043,14.4226L14.6781,11.8558Z" fill="#848c94"/>
    <path d="M18.498,4.7648V4.8003C19.6739,5.4807 20.4712,6.7427 20.4968,8.1928C21.4232,9.1004 21.998,10.3654 21.998,11.7648V18.7648C21.998,21.5262 19.7595,23.7648 16.998,23.7648H6.9981C4.2366,23.7648 1.998,21.5262 1.998,18.7648V11.7648C1.998,10.365 2.5732,9.0996 3.5002,8.192L3.498,8.1934C3.5234,6.7425 4.3213,5.4799 5.4981,4.7995V4.7648C5.4981,3.1079 6.8412,1.7648 8.498,1.7648H15.498C17.1549,1.7648 18.498,3.1079 18.498,4.7648ZM8.498,2.9648H15.498C16.344,2.9648 17.0536,3.5483 17.2464,4.3348C17.0038,4.2888 16.7534,4.2648 16.4974,4.2648H7.4974C7.2419,4.2648 6.992,4.2887 6.7498,4.3345C6.9427,3.5482 7.6522,2.9648 8.498,2.9648ZM16.4974,5.4648H7.4974C6.3179,5.4648 5.3088,6.1941 4.8963,7.2263L4.895,7.2272C5.5343,6.9304 6.2468,6.7648 6.9981,6.7648H16.998C17.7482,6.7648 18.4598,6.93 19.0984,7.226C18.6858,6.1939 17.6768,5.4648 16.4974,5.4648ZM6.9981,7.9648H16.998C19.0967,7.9648 20.798,9.6661 20.798,11.7648V18.7648C20.798,20.8635 19.0967,22.5648 16.998,22.5648H6.9981C4.8994,22.5648 3.1981,20.8635 3.1981,18.7648V11.7648C3.1981,9.6661 4.8994,7.9648 6.9981,7.9648Z" fill="#848c94" fill-rule="evenodd"/>
</svg>