<?xml version="1.0" encoding="utf-8" standalone="no"?><svg xmlns:aapt="http://schemas.android.com/aapt" xmlns:android="http://schemas.android.com/apk/res/android" xmlns:app="http://schemas.android.com/apk/res-auto" height="16" width="16" xmlns="http://www.w3.org/2000/svg">
    <path d="M7.5,0c2.209,0 4,1.79 4,4v2.5h1c0.552,0 1,0.448 1,1L13.5,15c0,0.552 -0.448,1 -1,1h-10c-0.552,0 -1,-0.448 -1,-1L1.5,7.5c0,-0.552 0.448,-1 1,-1h1L3.5,4c0,-2.21 1.79,-4 4,-4zM5,6.5h5L10,4c0,-1.38 -1.12,-2.5 -2.5,-2.5S5,2.62 5,4v2.5zM9,10.5c0,0.555 -0.302,1.04 -0.75,1.3L8.25,14h-1.5v-2.2C6.3,11.54 6,11.054 6,10.5 6,9.672 6.67,9 7.5,9c0.828,0 1.5,0.672 1.5,1.5z" fill="#767676" fill-rule="1"/>
</svg>