<?xml version="1.0" encoding="utf-8" standalone="no"?><svg xmlns:aapt="http://schemas.android.com/aapt" xmlns:android="http://schemas.android.com/apk/res/android" xmlns:app="http://schemas.android.com/apk/res-auto" height="24" width="24" xmlns="http://www.w3.org/2000/svg">
    <path d="M5.1,6.1C5.1,4.4314 6.4314,3.1 8.1,3.1H13.9C15.5686,3.1 16.9,4.4314 16.9,6.1C16.9,6.4314 17.1686,6.7 17.5,6.7C17.8314,6.7 18.1,6.4314 18.1,6.1C18.1,3.7686 16.2314,1.9 13.9,1.9H8.1C5.7686,1.9 3.9,3.7686 3.9,6.1V17.9C3.9,20.2314 5.7686,22.1 8.1,22.1H13.9C16.2314,22.1 18.1,20.2314 18.1,17.9C18.1,17.5686 17.8314,17.3 17.5,17.3C17.1686,17.3 16.9,17.5686 16.9,17.9C16.9,19.5686 15.5686,20.9 13.9,20.9H8.1C6.4314,20.9 5.1,19.5686 5.1,17.9V6.1ZM17.5757,8.5757C17.81,8.3414 18.1899,8.3414 18.4243,8.5757L21.4243,11.5757C21.4818,11.6333 21.5252,11.6996 21.5545,11.7703C21.5826,11.8383 21.5987,11.9125 21.5999,11.9903L21.6,12L21.5999,12.0097C21.5987,12.0875 21.5826,12.1617 21.5545,12.2297C21.5252,12.3004 21.4818,12.3667 21.4243,12.4243L18.4243,15.4243C18.1899,15.6586 17.81,15.6586 17.5757,15.4243C17.3414,15.1899 17.3414,14.81 17.5757,14.5757L19.5515,12.6H12C11.6686,12.6 11.4,12.3314 11.4,12C11.4,11.6686 11.6686,11.4 12,11.4H19.5515L17.5757,9.4243C17.3414,9.1899 17.3414,8.81 17.5757,8.5757Z" fill="#767676" fill-rule="1"/>
</svg>