<?xml version="1.0" encoding="utf-8" standalone="no"?><svg xmlns:aapt="http://schemas.android.com/aapt" xmlns:android="http://schemas.android.com/apk/res/android" xmlns:app="http://schemas.android.com/apk/res-auto" height="24" width="24" xmlns="http://www.w3.org/2000/svg">
    <path d="M2.1133,3.4805C1.043,4.7734 0.4609,6.5469 0.4609,8.4883C0.4609,11.5352 2.1641,14.5508 4.4297,17.0625C6.6953,19.5703 9.5352,21.582 11.8984,22.5938C11.9648,22.6211 12.0352,22.6211 12.1016,22.5938C14.4648,21.582 17.3047,19.5703 19.5703,17.0625C21.8359,14.5508 23.5391,11.5352 23.5391,8.4883C23.5391,6.5469 22.957,4.7734 21.8867,3.4805C20.8164,2.1875 19.2539,1.3828 17.3672,1.3828C15.1953,1.3828 13.3555,2.082 12,3.6914C10.6445,2.082 8.8047,1.3828 6.6328,1.3828C4.7461,1.3828 3.1836,2.1875 2.1133,3.4805ZM2.1133,3.4805" fill="#f35c5c" fill-rule="1" stroke="#00000000"/>
</svg>