<?xml version="1.0" encoding="UTF-8"?>
<svg xmlns="http://www.w3.org/2000/svg" xmlns:xlink="http://www.w3.org/1999/xlink" width="26px" height="26px" viewBox="0 0 26 26" version="1.1">
<g id="surface1">
<path style=" stroke:none;fill-rule:nonzero;fill:rgb(100%,100%,100%);fill-opacity:1;" d="M 6.066406 7.039062 C 6.066406 7.820312 5.4375 8.453125 4.65625 8.453125 C 3.882812 8.453125 3.25 7.820312 3.25 7.039062 C 3.25 6.265625 3.882812 5.632812 4.65625 5.632812 C 5.4375 5.632812 6.066406 6.265625 6.066406 7.039062 Z M 6.066406 13 C 6.066406 13.777344 5.4375 14.40625 4.65625 14.40625 C 3.882812 14.40625 3.25 13.777344 3.25 13 C 3.25 12.222656 3.882812 11.59375 4.65625 11.59375 C 5.4375 11.59375 6.066406 12.222656 6.066406 13 Z M 4.65625 20.367188 C 5.4375 20.367188 6.066406 19.734375 6.066406 18.960938 C 6.066406 18.179688 5.4375 17.546875 4.65625 17.546875 C 3.882812 17.546875 3.25 18.179688 3.25 18.960938 C 3.25 19.734375 3.882812 20.367188 4.65625 20.367188 Z M 9.316406 6.390625 C 8.960938 6.390625 8.664062 6.679688 8.664062 7.039062 C 8.664062 7.398438 8.960938 7.691406 9.316406 7.691406 L 22.316406 7.691406 C 22.675781 7.691406 22.96875 7.398438 22.96875 7.039062 C 22.96875 6.679688 22.675781 6.390625 22.316406 6.390625 Z M 8.664062 18.960938 C 8.664062 18.601562 8.960938 18.308594 9.316406 18.308594 L 22.316406 18.308594 C 22.675781 18.308594 22.96875 18.601562 22.96875 18.960938 C 22.96875 19.320312 22.675781 19.609375 22.316406 19.609375 L 9.316406 19.609375 C 8.960938 19.609375 8.664062 19.320312 8.664062 18.960938 Z M 9.316406 12.351562 C 8.960938 12.351562 8.664062 12.640625 8.664062 13 C 8.664062 13.359375 8.960938 13.648438 9.316406 13.648438 L 22.210938 13.648438 C 22.570312 13.648438 22.859375 13.359375 22.859375 13 C 22.859375 12.640625 22.570312 12.351562 22.210938 12.351562 Z M 9.316406 12.351562 "/>
</g>
</svg>
