<?xml version="1.0" encoding="utf-8" standalone="no"?><svg xmlns:aapt="http://schemas.android.com/aapt" xmlns:android="http://schemas.android.com/apk/res/android" xmlns:app="http://schemas.android.com/apk/res-auto" height="18" width="18" xmlns="http://www.w3.org/2000/svg">
    <path d="M15.9502,2.2071C16.7589,2.9322 16.7982,4.2192 16.0437,5.0607L15.0333,6.1827L14.7653,6.4805L7.2801,14.7963C6.8832,15.2393 6.3799,15.5731 5.8239,15.7622L5.8239,15.7622L1.799,17.1278L1.9532,16.4339L2.7206,12.9791C2.8518,12.3864 3.1185,11.8416 3.5052,11.4101L3.5052,11.4101L11.2584,2.7963L12.2688,1.6743C13.025,0.8311 14.2909,0.7184 15.0972,1.4424L15.9502,2.2071ZM13.9026,6.2431L12.6113,5.0838L11.3187,3.9252L4.1003,11.9446C3.8098,12.2689 3.6042,12.6888 3.5017,13.1523L3.5017,13.1523L2.8883,15.9135L5.5666,15.0047C5.9918,14.8601 6.3787,14.6034 6.685,14.2618L6.685,14.2618L13.9026,6.2431ZM15.4161,2.8027L14.563,2.0378C14.0949,1.6176 13.3335,1.6854 12.8639,2.209L11.854,3.3306L13.1466,4.4893L14.4379,5.6485L15.4486,4.526C15.9132,4.0079 15.8894,3.227 15.4161,2.8027Z" fill="#000000" fill-opacity="0.0" fill-rule="0" stroke="#2796de" stroke-width="1"/>
</svg>