<?xml version="1.0" encoding="utf-8" standalone="no"?><svg xmlns:aapt="http://schemas.android.com/aapt" xmlns:android="http://schemas.android.com/apk/res/android" xmlns:app="http://schemas.android.com/apk/res-auto" height="26" width="26" xmlns="http://www.w3.org/2000/svg">
    <path d="M6.75,2.75L19.25,2.75A5,5 0,0 1,24.25 7.75L24.25,18.25A5,5 0,0 1,19.25 23.25L6.75,23.25A5,5 0,0 1,1.75 18.25L1.75,7.75A5,5 0,0 1,6.75 2.75z" fill="#000000" fill-opacity="0.0" fill-rule="1" stroke="#1194ff" stroke-width="1.5"/>
    <path d="M24.25,18l-4.433,-5.103a3.25,3.25 0,0 0,-4.907 0L12.475,15.7a3.64,3.64 0,0 1,-5.496 0,2.14 2.14,0 0,0 -3.23,0L1.75,18v1A4.25,4.25 0,0 0,6 23.25h14A4.25,4.25 0,0 0,24.25 19v-1z" fill="#000000" fill-opacity="0.0" fill-rule="1" stroke="#1194ff" stroke-width="1.5"/>
    <path d="M6.5,7.5m-1.81,0a1.81,1.81 0,1 1,3.62 0a1.81,1.81 0,1 1,-3.62 0" fill="#000000" fill-opacity="0.0" fill-rule="1" stroke="#1194ff" stroke-width="1.38"/>
</svg>