<?xml version="1.0" encoding="utf-8" standalone="no"?><svg xmlns:aapt="http://schemas.android.com/aapt" xmlns:android="http://schemas.android.com/apk/res/android" xmlns:app="http://schemas.android.com/apk/res-auto" height="24" width="24" xmlns="http://www.w3.org/2000/svg">
    <path d="M19.7243,3.1242C19.89,2.9586 20.1101,2.9586 20.2758,3.1242L20.8758,3.7243C21.0414,3.8899 21.0414,4.11 20.8758,4.2757L20,5.1515L18.8486,4L19.7243,3.1242ZM17.5729,3.5786C17.5739,3.5776 17.5748,3.5767 17.5758,3.5757L18.8758,2.2757C19.5101,1.6414 20.49,1.6414 21.1243,2.2757L21.7243,2.8757C22.3586,3.51 22.3586,4.4899 21.7243,5.1242L20.4271,6.4215C20.4262,6.4224 20.4252,6.4233 20.4243,6.4243L14.3243,12.5243C13.9878,12.8607 13.6203,13.1193 13.2182,13.2595L10.7516,14.3448C10.6143,14.41 10.4387,14.4509 10.2464,14.4108C10.0451,14.3689 9.8995,14.2536 9.8065,14.1373C9.6388,13.9277 9.6,13.6728 9.6,13.5C9.6,13.4168 9.6173,13.3345 9.6509,13.2584L10.7508,10.7584C10.7548,10.7494 10.759,10.7405 10.7634,10.7317C10.9775,10.3034 11.2116,9.9399 11.4758,9.6757L17.5729,3.5786ZM7.5,4.1C5.6314,4.1 4.1,5.6314 4.1,7.5V16.5C4.1,18.3686 5.6314,19.9 7.5,19.9H16.5C18.3687,19.9 19.9,18.3686 19.9,16.5V10C19.9,9.6686 20.1687,9.4 20.5,9.4C20.8314,9.4 21.1,9.6686 21.1,10V16.5C21.1,19.0314 19.0314,21.1 16.5,21.1H7.5C4.9686,21.1 2.9,19.0314 2.9,16.5V7.5C2.9,4.9686 4.9686,2.9 7.5,2.9H14C14.3314,2.9 14.6,3.1686 14.6,3.5C14.6,3.8314 14.3314,4.1 14,4.1H7.5ZM18,4.8485L12.3243,10.5243C12.19,10.6585 12.0264,10.8911 11.8431,11.2555L11.1349,12.8652L12.7584,12.1508C12.7754,12.1433 12.7927,12.1367 12.8103,12.1308C12.997,12.0685 13.2202,11.9313 13.4758,11.6757L19.1515,6L18,4.8485Z" fill="#fff" fill-rule="1"/>
</svg>