<?xml version="1.0" encoding="utf-8" standalone="no"?><svg xmlns:aapt="http://schemas.android.com/aapt" xmlns:android="http://schemas.android.com/apk/res/android" xmlns:app="http://schemas.android.com/apk/res-auto" height="24" width="24" xmlns="http://www.w3.org/2000/svg">
    <path d="M7.5,2.9H16.5C19,2.9 21.1,5 21.1,7.5V16.5C21.1,19 19,21.1 16.5,21.1H7.5C5,21.1 2.9,19 2.9,16.5V7.5C2.9,5 5,2.9 7.5,2.9ZM7.2,9.4C7.8627,9.4 8.4,8.8627 8.4,8.2C8.4,7.5373 7.8627,7 7.2,7C6.5373,7 6,7.5373 6,8.2C6,8.8627 6.5373,9.4 7.2,9.4ZM15.5,10.9C14.0734,10.9 13.0085,12.076 12.0475,13.1374L11.9,13.3C11.83,13.38 11.76,13.461 11.69,13.542C11.06,14.271 10.43,15 9.8,15C8.9,15 8.5,14.7 8.1,14.4L8.0587,14.3689C7.6654,14.0731 7.1693,13.7 6.3,13.7C5.8,13.7 5.3,13.8 4.8,14.1C4.5,14.3 4.2,14.6 4,14.9V16C4,18.2 5.8,20 8,20H15.8C18,20 19.8,18.2 19.8,16V14.6C18.9,12.8 17.1,10.9 15.5,10.9Z" fill="#fff" fill-rule="1"/>
</svg>