<?xml version="1.0" encoding="utf-8" standalone="no"?><svg xmlns:aapt="http://schemas.android.com/aapt" xmlns:android="http://schemas.android.com/apk/res/android" xmlns:app="http://schemas.android.com/apk/res-auto" height="24" width="24" xmlns="http://www.w3.org/2000/svg">
    <path  d="M17.375,9.924c0,0.736 -0.551,1.333 -1.231,1.333s-1.23,-0.597 -1.23,-1.333 0.55,-1.334 1.23,-1.334c0.68,0 1.23,0.598 1.23,1.334" fill="#767676" fill-rule="1"/>
    <path  d="M17.375,9.924c0,0.736 -0.551,1.333 -1.231,1.333s-1.23,-0.597 -1.23,-1.333 0.55,-1.334 1.23,-1.334c0.68,0 1.23,0.598 1.23,1.334z" fill="#000000" fill-opacity="0.0" fill-rule="1" stroke="#767676" stroke-width="1"/>
    <path  d="M12.61,8.302c0,1.27 -0.95,2.301 -2.123,2.301 -1.174,0 -2.125,-1.03 -2.125,-2.301C8.362,7.03 9.313,6 10.487,6 11.66,6 12.61,7.03 12.61,8.302" fill="#767676" fill-rule="1"/>
    <path  d="M12.61,8.302c0,1.27 -0.95,2.301 -2.123,2.301 -1.174,0 -2.125,-1.03 -2.125,-2.301C8.362,7.03 9.313,6 10.487,6 11.66,6 12.61,7.03 12.61,8.302z" fill="#000000" fill-opacity="0.0" fill-rule="1" stroke="#767676" stroke-width="1"/>
    <path  d="M15.888,15.59c-0.528,-1.776 -2.402,-3.57 -5.4,-3.57 -3,0 -4.875,1.794 -5.403,3.57 -0.181,0.613 -0.07,1.275 0.3,1.77 0.307,0.41 0.757,0.647 1.234,0.647h7.736c0.476,0 0.926,-0.236 1.234,-0.647 0.369,-0.495 0.48,-1.157 0.299,-1.77M19.607,14.802c-0.648,-1.525 -1.878,-2.365 -3.463,-2.365 -0.147,0 -0.29,0.007 -0.427,0.022 -0.243,0.025 -0.343,0.444 -0.184,0.612 0.639,0.678 1.082,1.457 1.313,2.236 0.1,0.332 0.137,0.675 0.116,1.012 -0.018,0.32 0.126,0.473 0.332,0.473h0.997c0.483,0 0.928,-0.24 1.194,-0.643 0.265,-0.401 0.311,-0.905 0.122,-1.347" fill="#767676" fill-rule="1"/>
</svg>