<?xml version="1.0" encoding="utf-8" standalone="no"?><svg xmlns:aapt="http://schemas.android.com/aapt" xmlns:android="http://schemas.android.com/apk/res/android" xmlns:app="http://schemas.android.com/apk/res-auto" height="24" width="24" xmlns="http://www.w3.org/2000/svg">
	<defs>
    <linearGradient id="grad1" x1="0%" y1="100%" x2="100%" y2="0%">
      <stop offset="0%" style="stop-color:rgb(127,180,81);stop-opacity:1" />
      <stop offset="100%" style="stop-color:rgb(186,218,69);stop-opacity:1" />
    </linearGradient>
  </defs>
    <path d="M7.326,2.851c-1.624,0 -2.252,0.177 -2.906,0.526 -0.668,0.359 -1.186,0.877 -1.543,1.543 -0.349,0.653 -0.528,1.282 -0.528,2.907v8.221c0,1.626 0.18,2.255 0.528,2.907 0.357,0.666 0.875,1.186 1.543,1.543 0.654,0.349 1.282,0.527 2.906,0.527h9.348c1.622,0 2.251,-0.178 2.906,-0.527 0.667,-0.357 1.185,-0.877 1.542,-1.542 0.35,-0.653 0.528,-1.282 0.528,-2.908V7.827c0,-1.625 -0.179,-2.254 -0.528,-2.907 -0.357,-0.666 -0.875,-1.184 -1.542,-1.543 -0.655,-0.349 -1.284,-0.526 -2.906,-0.526H7.326z" fill="url(#grad1)" fill-rule="1"/>
    <path d="M7,6.199c0.884,0 1.6,0.716 1.6,1.6 0,0.884 -0.716,1.6 -1.6,1.6 -0.884,0 -1.6,-0.716 -1.6,-1.6 0,-0.884 0.716,-1.6 1.6,-1.6" fill="#fff" fill-rule="1"/>
    <g>
        <path d="M15.305,11.501c-2.357,0 -3.348,3.626 -5.327,3.626 -1.98,0 -2.11,-1.326 -3.48,-1.326 -0.39,0 -0.767,0.104 -1.129,0.312 -1.06,0.611 -1.243,2.41 -1.243,3.122 0,0.127 0.061,0.242 0.101,0.347 0.077,0.205 0.174,0.383 0.174,0.383 0.261,0.49 0.645,0.873 1.134,1.134 0.49,0.262 0.974,0.401 2.311,0.401h8.31c1.336,0 1.821,-0.139 2.31,-0.4 0.488,-0.262 0.872,-0.646 1.134,-1.135 0.021,-0.04 0.098,-0.182 0.174,-0.383 0.084,-0.22 0.164,-0.697 0.164,-0.708 0.003,-0.72 -0.269,-1.696 -0.779,-2.204 -0.979,-0.976 -2.02,-3.17 -3.854,-3.17" fill="#fff" fill-rule="1"/>
    </g>
    <g>
        <path d="M15.305,11.501c-2.357,0 -3.348,3.626 -5.327,3.626 -1.98,0 -2.11,-1.326 -3.48,-1.326 -0.39,0 -0.767,0.104 -1.129,0.312 -1.06,0.611 -1.243,2.41 -1.243,3.122 0,0.127 0.061,0.242 0.101,0.347 0.077,0.205 0.174,0.383 0.174,0.383 0.261,0.49 0.645,0.873 1.134,1.134 0.49,0.262 0.974,0.401 2.311,0.401h8.31c1.336,0 1.821,-0.139 2.31,-0.4 0.488,-0.262 0.872,-0.646 1.134,-1.135 0.021,-0.04 0.098,-0.182 0.174,-0.383 0.084,-0.22 0.164,-0.697 0.164,-0.708 0.003,-0.72 -0.269,-1.696 -0.779,-2.204 -0.979,-0.976 -2.02,-3.17 -3.854,-3.17z" fill="#000000" fill-opacity="0.0" fill-rule="1" stroke="#fff" stroke-width="1.3"/>
    </g>
</svg>