<?xml version="1.0" encoding="utf-8" standalone="no"?><svg xmlns:aapt="http://schemas.android.com/aapt" xmlns:android="http://schemas.android.com/apk/res/android" xmlns:app="http://schemas.android.com/apk/res-auto" height="26" width="26" xmlns="http://www.w3.org/2000/svg">
    <path d="M18.59,2c2.23,0 3.037,0.232 3.852,0.668a4.543,4.543 0,0 1,1.89 1.89c0.436,0.815 0.668,1.623 0.668,3.852v9.18c0,2.23 -0.232,3.037 -0.668,3.852a4.543,4.543 0,0 1,-1.89 1.89c-0.815,0.436 -1.623,0.668 -3.852,0.668L7.41,24c-2.23,0 -3.037,-0.232 -3.852,-0.668a4.543,4.543 0,0 1,-1.89 -1.89C1.232,20.627 1,19.82 1,17.59L1,8.41c0,-2.23 0.232,-3.037 0.668,-3.852a4.543,4.543 0,0 1,1.89 -1.89C4.373,2.232 5.18,2 7.41,2h11.18zM13.943,13.002a4,4 0,0 0,-0.264 0.265L12.09,15.01a2.459,2.459 0,0 1,-3.636 0,2.459 2.459,0 0,0 -3.637,0L3,17.007L3,18a4,4 0,0 0,4 4h12a4,4 0,0 0,4 -4v-0.993l-3.406,-3.74a4,4 0,0 0,-5.65 -0.265zM6,5a2,2 0,1 0,0 4,2 2,0 0,0 0,-4z" fill="#767676" fill-rule="1"/>
</svg>