<?xml version="1.0" encoding="utf-8" standalone="no"?><svg xmlns:aapt="http://schemas.android.com/aapt" xmlns:android="http://schemas.android.com/apk/res/android" xmlns:app="http://schemas.android.com/apk/res-auto" height="18" width="18" xmlns="http://www.w3.org/2000/svg">
    <path d="M1.2426,7.4559C1.2426,4.0299 4.0299,1.2426 7.4559,1.2426C10.8818,1.2426 13.6691,4.0299 13.6691,7.4559C13.6691,10.8818 10.8818,13.6691 7.4559,13.6691C4.0299,13.6691 1.2426,10.8818 1.2426,7.4559M17.8792,17.0006L13.148,12.2692C14.2475,10.9703 14.9117,9.291 14.9117,7.4559C14.9117,3.3382 11.5736,0 7.4559,0C3.3382,0 0,3.3382 0,7.4559C0,11.5736 3.3382,14.9117 7.4559,14.9117C9.291,14.9117 10.9703,14.2475 12.2692,13.1478L17.0006,17.8792C17.1617,18.0403 17.4254,18.0403 17.5863,17.8792L17.8792,17.5863C18.0403,17.4252 18.0403,17.1617 17.8792,17.0006" fill="#fff" fill-rule="1" stroke="#00000000" stroke-width="1"/>
</svg>