<?xml version="1.0" encoding="UTF-8"?>
<svg xmlns="http://www.w3.org/2000/svg" xmlns:xlink="http://www.w3.org/1999/xlink" width="24px" height="24px" viewBox="0 0 24 24" version="1.1">
<g id="surface1">
<path style=" stroke:none;fill-rule:nonzero;fill:rgb(100%,100%,100%);fill-opacity:1;" d="M 4.800781 0.601562 C 4.800781 0.269531 4.53125 0 4.199219 0 L 2.398438 0 C 1.074219 0 0 1.074219 0 2.398438 L 0 4.199219 C 0 4.53125 0.269531 4.800781 0.601562 4.800781 L 0.839844 4.800781 C 1.171875 4.800781 1.441406 4.53125 1.441406 4.199219 L 1.441406 2.398438 C 1.441406 1.871094 1.871094 1.441406 2.398438 1.441406 L 4.199219 1.441406 C 4.53125 1.441406 4.800781 1.171875 4.800781 0.839844 Z M 4.800781 0.601562 "/>
<path style=" stroke:none;fill-rule:nonzero;fill:rgb(100%,100%,100%);fill-opacity:1;" d="M 19.199219 0.839844 C 19.199219 1.171875 19.46875 1.441406 19.800781 1.441406 L 21.601562 1.441406 C 22.128906 1.441406 22.558594 1.871094 22.558594 2.398438 L 22.558594 4.199219 C 22.558594 4.53125 22.828125 4.800781 23.160156 4.800781 L 23.398438 4.800781 C 23.730469 4.800781 24 4.53125 24 4.199219 L 24 2.398438 C 24 1.074219 22.925781 0 21.601562 0 L 19.800781 0 C 19.46875 0 19.199219 0.269531 19.199219 0.601562 Z M 19.199219 0.839844 "/>
<path style=" stroke:none;fill-rule:nonzero;fill:rgb(100%,100%,100%);fill-opacity:1;" d="M 19.800781 24 C 19.46875 24 19.199219 23.730469 19.199219 23.398438 L 19.199219 23.160156 C 19.199219 22.828125 19.46875 22.558594 19.800781 22.558594 L 21.601562 22.558594 C 22.128906 22.558594 22.558594 22.128906 22.558594 21.601562 L 22.558594 19.800781 C 22.558594 19.46875 22.828125 19.199219 23.160156 19.199219 L 23.398438 19.199219 C 23.730469 19.199219 24 19.46875 24 19.800781 L 24 21.601562 C 24 22.925781 22.925781 24 21.601562 24 Z M 19.800781 24 "/>
<path style=" stroke:none;fill-rule:nonzero;fill:rgb(100%,100%,100%);fill-opacity:1;" d="M 4.199219 22.558594 C 4.53125 22.558594 4.800781 22.828125 4.800781 23.160156 L 4.800781 23.398438 C 4.800781 23.730469 4.53125 24 4.199219 24 L 2.398438 24 C 1.074219 24 0 22.925781 0 21.601562 L 0 19.800781 C 0 19.46875 0.269531 19.199219 0.601562 19.199219 L 0.839844 19.199219 C 1.171875 19.199219 1.441406 19.46875 1.441406 19.800781 L 1.441406 21.601562 C 1.441406 22.128906 1.871094 22.558594 2.398438 22.558594 Z M 4.199219 22.558594 "/>
<path style=" stroke:none;fill-rule:nonzero;fill:rgb(100%,100%,100%);fill-opacity:1;" d="M 7.199219 6.601562 C 6.867188 6.601562 6.601562 6.867188 6.601562 7.199219 L 6.601562 7.800781 C 6.601562 8.132812 6.867188 8.398438 7.199219 8.398438 L 7.800781 8.398438 C 8.132812 8.398438 8.398438 8.132812 8.398438 7.800781 L 8.398438 7.199219 C 8.398438 6.867188 8.132812 6.601562 7.800781 6.601562 Z M 7.199219 6.601562 "/>
<path style=" stroke:none;fill-rule:evenodd;fill:rgb(100%,100%,100%);fill-opacity:1;" d="M 3.898438 5.101562 C 3.898438 4.4375 4.4375 3.898438 5.101562 3.898438 L 9.898438 3.898438 C 10.5625 3.898438 11.101562 4.4375 11.101562 5.101562 L 11.101562 9.898438 C 11.101562 10.5625 10.5625 11.101562 9.898438 11.101562 L 5.101562 11.101562 C 4.4375 11.101562 3.898438 10.5625 3.898438 9.898438 Z M 5.339844 9.660156 L 5.339844 5.339844 L 9.660156 5.339844 L 9.660156 9.660156 Z M 5.339844 9.660156 "/>
<path style=" stroke:none;fill-rule:nonzero;fill:rgb(100%,100%,100%);fill-opacity:1;" d="M 7.199219 15.601562 C 6.867188 15.601562 6.601562 15.867188 6.601562 16.199219 L 6.601562 16.800781 C 6.601562 17.132812 6.867188 17.398438 7.199219 17.398438 L 7.800781 17.398438 C 8.132812 17.398438 8.398438 17.132812 8.398438 16.800781 L 8.398438 16.199219 C 8.398438 15.867188 8.132812 15.601562 7.800781 15.601562 Z M 7.199219 15.601562 "/>
<path style=" stroke:none;fill-rule:evenodd;fill:rgb(100%,100%,100%);fill-opacity:1;" d="M 3.898438 14.101562 C 3.898438 13.4375 4.4375 12.898438 5.101562 12.898438 L 9.898438 12.898438 C 10.5625 12.898438 11.101562 13.4375 11.101562 14.101562 L 11.101562 18.898438 C 11.101562 19.5625 10.5625 20.101562 9.898438 20.101562 L 5.101562 20.101562 C 4.4375 20.101562 3.898438 19.5625 3.898438 18.898438 Z M 5.339844 18.660156 L 5.339844 14.339844 L 9.660156 14.339844 L 9.660156 18.660156 Z M 5.339844 18.660156 "/>
<path style=" stroke:none;fill-rule:nonzero;fill:rgb(100%,100%,100%);fill-opacity:1;" d="M 15.601562 7.199219 C 15.601562 6.867188 15.867188 6.601562 16.199219 6.601562 L 16.800781 6.601562 C 17.132812 6.601562 17.398438 6.867188 17.398438 7.199219 L 17.398438 7.800781 C 17.398438 8.132812 17.132812 8.398438 16.800781 8.398438 L 16.199219 8.398438 C 15.867188 8.398438 15.601562 8.132812 15.601562 7.800781 Z M 15.601562 7.199219 "/>
<path style=" stroke:none;fill-rule:evenodd;fill:rgb(100%,100%,100%);fill-opacity:1;" d="M 14.101562 3.898438 C 13.4375 3.898438 12.898438 4.4375 12.898438 5.101562 L 12.898438 9.898438 C 12.898438 10.5625 13.4375 11.101562 14.101562 11.101562 L 18.898438 11.101562 C 19.5625 11.101562 20.101562 10.5625 20.101562 9.898438 L 20.101562 5.101562 C 20.101562 4.4375 19.5625 3.898438 18.898438 3.898438 Z M 14.339844 5.339844 L 14.339844 9.660156 L 18.660156 9.660156 L 18.660156 5.339844 Z M 14.339844 5.339844 "/>
<path style=" stroke:none;fill-rule:nonzero;fill:rgb(100%,100%,100%);fill-opacity:1;" d="M 13.5 12.898438 C 13.167969 12.898438 12.898438 13.167969 12.898438 13.5 L 12.898438 14.699219 C 12.898438 15.03125 13.167969 15.300781 13.5 15.300781 L 14.699219 15.300781 C 15.03125 15.300781 15.300781 15.03125 15.300781 14.699219 L 15.300781 13.5 C 15.300781 13.167969 15.03125 12.898438 14.699219 12.898438 Z M 13.5 12.898438 "/>
<path style=" stroke:none;fill-rule:nonzero;fill:rgb(100%,100%,100%);fill-opacity:1;" d="M 13.5 17.699219 C 13.167969 17.699219 12.898438 17.96875 12.898438 18.300781 L 12.898438 19.5 C 12.898438 19.832031 13.167969 20.101562 13.5 20.101562 L 14.699219 20.101562 C 15.03125 20.101562 15.300781 19.832031 15.300781 19.5 L 15.300781 18.300781 C 15.300781 17.96875 15.03125 17.699219 14.699219 17.699219 Z M 13.5 17.699219 "/>
<path style=" stroke:none;fill-rule:nonzero;fill:rgb(100%,100%,100%);fill-opacity:1;" d="M 15.898438 15.300781 C 15.570312 15.300781 15.300781 15.570312 15.300781 15.898438 L 15.300781 17.101562 C 15.300781 17.429688 15.570312 17.699219 15.898438 17.699219 L 17.101562 17.699219 C 17.429688 17.699219 17.699219 17.429688 17.699219 17.101562 L 17.699219 15.898438 C 17.699219 15.570312 17.429688 15.300781 17.101562 15.300781 Z M 15.898438 15.300781 "/>
<path style=" stroke:none;fill-rule:nonzero;fill:rgb(100%,100%,100%);fill-opacity:1;" d="M 18.300781 12.898438 C 17.96875 12.898438 17.699219 13.167969 17.699219 13.5 L 17.699219 14.699219 C 17.699219 15.03125 17.96875 15.300781 18.300781 15.300781 L 19.5 15.300781 C 19.832031 15.300781 20.101562 15.03125 20.101562 14.699219 L 20.101562 13.5 C 20.101562 13.167969 19.832031 12.898438 19.5 12.898438 Z M 18.300781 12.898438 "/>
<path style=" stroke:none;fill-rule:nonzero;fill:rgb(100%,100%,100%);fill-opacity:1;" d="M 18.300781 17.699219 C 17.96875 17.699219 17.699219 17.96875 17.699219 18.300781 L 17.699219 19.5 C 17.699219 19.832031 17.96875 20.101562 18.300781 20.101562 L 19.5 20.101562 C 19.832031 20.101562 20.101562 19.832031 20.101562 19.5 L 20.101562 18.300781 C 20.101562 17.96875 19.832031 17.699219 19.5 17.699219 Z M 18.300781 17.699219 "/>
</g>
</svg>
