<?xml version="1.0" encoding="utf-8" standalone="no"?><svg xmlns:aapt="http://schemas.android.com/aapt" xmlns:android="http://schemas.android.com/apk/res/android" xmlns:app="http://schemas.android.com/apk/res-auto" height="32" width="32" xmlns="http://www.w3.org/2000/svg">
    <path d="M6.4,0.8C6.4,0.3582 6.0418,0 5.6,0H3.2C1.4327,0 0,1.4327 0,3.2V5.6C0,6.0418 0.3582,6.4 0.8,6.4H1.12C1.5618,6.4 1.92,6.0418 1.92,5.6V3.2C1.92,2.4931 2.4931,1.92 3.2,1.92H5.6C6.0418,1.92 6.4,1.5618 6.4,1.12V0.8Z" fill="#ffffff"/>
    <path d="M25.6,1.12C25.6,1.5618 25.9582,1.92 26.4,1.92H28.8C29.5069,1.92 30.08,2.4931 30.08,3.2V5.6C30.08,6.0418 30.4382,6.4 30.88,6.4H31.2C31.6418,6.4 32,6.0418 32,5.6V3.2C32,1.4327 30.5673,0 28.8,0H26.4C25.9582,0 25.6,0.3582 25.6,0.8V1.12Z" fill="#ffffff"/>
    <path d="M26.4,32C25.9582,32 25.6,31.6418 25.6,31.2V30.88C25.6,30.4382 25.9582,30.08 26.4,30.08H28.8C29.5069,30.08 30.08,29.5069 30.08,28.8V26.4C30.08,25.9582 30.4382,25.6 30.88,25.6H31.2C31.6418,25.6 32,25.9582 32,26.4V28.8C32,30.5673 30.5673,32 28.8,32H26.4Z" fill="#ffffff"/>
    <path d="M5.6,30.08C6.0418,30.08 6.4,30.4382 6.4,30.88V31.2C6.4,31.6418 6.0418,32 5.6,32H3.2C1.4327,32 0,30.5673 0,28.8V26.4C0,25.9582 0.3582,25.6 0.8,25.6H1.12C1.5618,25.6 1.92,25.9582 1.92,26.4V28.8C1.92,29.5069 2.4931,30.08 3.2,30.08H5.6Z" fill="#ffffff"/>
    <path d="M9.6,8.8C9.1582,8.8 8.8,9.1582 8.8,9.6V10.4C8.8,10.8418 9.1582,11.2 9.6,11.2H10.4C10.8418,11.2 11.2,10.8418 11.2,10.4V9.6C11.2,9.1582 10.8418,8.8 10.4,8.8H9.6Z" fill="#ffffff"/>
    <path d="M5.2,6.8C5.2,5.9163 5.9163,5.2 6.8,5.2H13.2C14.0837,5.2 14.8,5.9163 14.8,6.8V13.2C14.8,14.0837 14.0837,14.8 13.2,14.8H6.8C5.9163,14.8 5.2,14.0837 5.2,13.2V6.8ZM7.12,12.88V7.12H12.88V12.88H7.12Z" fill="#ffffff" fill-rule="evenodd"/>
    <path d="M9.6,20.8C9.1582,20.8 8.8,21.1582 8.8,21.6V22.4C8.8,22.8418 9.1582,23.2 9.6,23.2H10.4C10.8418,23.2 11.2,22.8418 11.2,22.4V21.6C11.2,21.1582 10.8418,20.8 10.4,20.8H9.6Z" fill="#ffffff"/>
    <path d="M5.2,18.8C5.2,17.9163 5.9163,17.2 6.8,17.2H13.2C14.0837,17.2 14.8,17.9163 14.8,18.8V25.2C14.8,26.0837 14.0837,26.8 13.2,26.8H6.8C5.9163,26.8 5.2,26.0837 5.2,25.2V18.8ZM7.12,24.88V19.12H12.88V24.88H7.12Z" fill="#ffffff" fill-rule="evenodd"/>
    <path d="M20.8,9.6C20.8,9.1582 21.1582,8.8 21.6,8.8H22.4C22.8418,8.8 23.2,9.1582 23.2,9.6V10.4C23.2,10.8418 22.8418,11.2 22.4,11.2H21.6C21.1582,11.2 20.8,10.8418 20.8,10.4V9.6Z" fill="#ffffff"/>
    <path d="M18.8,5.2C17.9163,5.2 17.2,5.9163 17.2,6.8V13.2C17.2,14.0837 17.9163,14.8 18.8,14.8H25.2C26.0837,14.8 26.8,14.0837 26.8,13.2V6.8C26.8,5.9163 26.0837,5.2 25.2,5.2H18.8ZM19.12,7.12V12.88H24.88V7.12H19.12Z" fill="#ffffff" fill-rule="evenodd"/>
    <path d="M18,17.2C17.5582,17.2 17.2,17.5582 17.2,18V19.6C17.2,20.0418 17.5582,20.4 18,20.4H19.6C20.0418,20.4 20.4,20.0418 20.4,19.6V18C20.4,17.5582 20.0418,17.2 19.6,17.2H18Z" fill="#ffffff"/>
    <path d="M18,23.6C17.5582,23.6 17.2,23.9582 17.2,24.4V26C17.2,26.4418 17.5582,26.8 18,26.8H19.6C20.0418,26.8 20.4,26.4418 20.4,26V24.4C20.4,23.9582 20.0418,23.6 19.6,23.6H18Z" fill="#ffffff"/>
    <path d="M21.2,20.4C20.7582,20.4 20.4,20.7582 20.4,21.2V22.8C20.4,23.2418 20.7582,23.6 21.2,23.6H22.8C23.2418,23.6 23.6,23.2418 23.6,22.8V21.2C23.6,20.7582 23.2418,20.4 22.8,20.4H21.2Z" fill="#ffffff"/>
    <path d="M24.4,17.2C23.9582,17.2 23.6,17.5582 23.6,18V19.6C23.6,20.0418 23.9582,20.4 24.4,20.4H26C26.4418,20.4 26.8,20.0418 26.8,19.6V18C26.8,17.5582 26.4418,17.2 26,17.2H24.4Z" fill="#ffffff"/>
    <path d="M24.4,23.6C23.9582,23.6 23.6,23.9582 23.6,24.4V26C23.6,26.4418 23.9582,26.8 24.4,26.8H26C26.4418,26.8 26.8,26.4418 26.8,26V24.4C26.8,23.9582 26.4418,23.6 26,23.6H24.4Z" fill="#ffffff"/>
</svg>