<?xml version="1.0" encoding="utf-8" standalone="no"?><svg xmlns:aapt="http://schemas.android.com/aapt" xmlns:android="http://schemas.android.com/apk/res/android" xmlns:app="http://schemas.android.com/apk/res-auto" height="24" width="24" xmlns="http://www.w3.org/2000/svg">
    <path d="M12,2.9C10.659,2.9 9.6769,3.4662 9.0504,4.3372C8.4427,5.182 8.2,6.2675 8.2,7.3C8.2,8.7944 8.5735,9.9935 9.2614,10.8309C9.9583,11.6793 10.9333,12.1 12,12.1C13.0667,12.1 14.0417,11.6793 14.7386,10.8309C15.4265,9.9935 15.8,8.7944 15.8,7.3C15.8,6.2675 15.5573,5.182 14.9496,4.3372C14.3231,3.4662 13.341,2.9 12,2.9ZM9.4,7.3C9.4,6.4325 9.6073,5.6181 10.0246,5.0379C10.4231,4.4838 11.041,4.1 12,4.1C12.959,4.1 13.5769,4.4838 13.9754,5.0379C14.3927,5.6181 14.6,6.4325 14.6,7.3C14.6,8.6057 14.2735,9.5065 13.8114,10.0692C13.3583,10.6208 12.7333,10.9 12,10.9C11.2667,10.9 10.6417,10.6208 10.1886,10.0692C9.7265,9.5065 9.4,8.6057 9.4,7.3ZM5.5,19.9C5.2729,19.9 5.1047,19.7136 5.1001,19.5087C5.1934,17.1402 7.7141,14.6 12,14.6C16.2864,14.6 18.8073,17.1409 18.8999,19.5096C18.898,19.6672 18.8471,19.7544 18.8007,19.8008C18.7534,19.8481 18.6637,19.9 18.5,19.9H5.5ZM12,13.4C7.2936,13.4 4.0157,16.2507 3.9004,19.4786L3.9,19.4893V19.5C3.9,20.2917 4.5303,21.1 5.5,21.1H18.5C18.9364,21.1 19.3466,20.952 19.6493,20.6493C19.9519,20.3466 20.1,19.9364 20.1,19.5V19.4893L20.0996,19.4786C19.9843,16.2507 16.7064,13.4 12,13.4Z" fill="#767676" fill-rule="1"/>
</svg>