<?xml version="1.0" encoding="utf-8" standalone="no"?><svg xmlns:aapt="http://schemas.android.com/aapt" xmlns:android="http://schemas.android.com/apk/res/android" xmlns:app="http://schemas.android.com/apk/res-auto" height="21" width="19" xmlns="http://www.w3.org/2000/svg">
    <path d="M9.2497,0.5C7.7761,0.5 6.6968,1.1222 6.0084,2.0793C5.3407,3.0076 5.0739,4.2006 5.0739,5.3352C5.0739,6.9773 5.4844,8.295 6.2402,9.2152C7.0061,10.1475 8.0775,10.6099 9.2497,10.6099C10.4219,10.6099 11.4934,10.1475 12.2592,9.2152C13.0151,8.295 13.4255,6.9773 13.4255,5.3352C13.4255,4.2006 13.1588,3.0076 12.491,2.0793C11.8026,1.1222 10.7233,0.5 9.2497,0.5ZM9.2497,12.0385C4.0778,12.0385 0.4757,15.1711 0.3491,18.7182L0.3486,18.73V18.7418C0.3486,19.6118 1.0413,20.5 2.1069,20.5H16.3926C16.8721,20.5 17.3229,20.3373 17.6555,20.0047C17.9881,19.6721 18.1508,19.2213 18.1508,18.7418V18.73L18.1504,18.7182C18.0237,15.1711 14.4216,12.0385 9.2497,12.0385Z" fill="#1194ff" fill-rule="1"/>
</svg>