<?xml version="1.0" encoding="utf-8" standalone="no"?><svg xmlns:aapt="http://schemas.android.com/aapt" xmlns:android="http://schemas.android.com/apk/res/android" xmlns:app="http://schemas.android.com/apk/res-auto" height="24" width="28" xmlns="http://www.w3.org/2000/svg">
    <path d="M5.5,2.5v19H19a3.5,3.5 0,0 0,3.5 -3.5V6A3.5,3.5 0,0 0,19 2.5H5.5z" fill="#1194ff" fill-opacity="1.0" fill-rule="1" stroke="#fff" stroke-width="1"/>
	<path d="M10.017,14.86a0.5,0.5 0,0 0,0.48 0.64h7.006a0.5,0.5 0,0 0,0.48 -0.64C17.315,12.583 16.013,11.5 14,11.5c-2.014,0 -3.315,1.084 -3.983,3.36z" fill="#fff" fill-opacity="1.0" fill-rule="0" stroke="#fff" stroke-width="0.5"/>
    <path d="M14,9.5m-2,0a2,2 0,1 1,4 0a2,2 0,1 1,-4 0" fill="#fff" fill-opacity="1.0" fill-rule="0" stroke="#1194ff" stroke-width="0.5"/>
    
</svg>