<?xml version="1.0" encoding="utf-8" standalone="no"?><svg xmlns:aapt="http://schemas.android.com/aapt" xmlns:android="http://schemas.android.com/apk/res/android" xmlns:app="http://schemas.android.com/apk/res-auto" height="24" width="24" xmlns="http://www.w3.org/2000/svg">
    <path d="M6.977,2.4c-1.768,0 -3.23,0.73 -4.23,1.907C1.744,5.484 1.2,7.1 1.2,8.867c0,2.772 1.592,5.518 3.712,7.803 2.121,2.285 4.78,4.117 6.994,5.038 0.06,0.025 0.128,0.025 0.188,0 2.213,-0.921 4.873,-2.753 6.993,-5.038 2.121,-2.285 3.713,-5.031 3.713,-7.802 0,-1.768 -0.545,-3.384 -1.546,-4.561S18.79,2.4 17.024,2.4C14.99,2.4 13.27,3.62 12,5.086 10.73,3.62 9.01,2.4 6.977,2.4" fill="#000000" fill-opacity="0.0" fill-rule="1" stroke="#767676" stroke-width="1.3"/>
</svg>