<?xml version="1.0" encoding="utf-8" standalone="no"?><svg xmlns:aapt="http://schemas.android.com/aapt" xmlns:android="http://schemas.android.com/apk/res/android" xmlns:app="http://schemas.android.com/apk/res-auto" height="24" width="24" xmlns="http://www.w3.org/2000/svg">
    <path d="M2.9,7.1C2.9,5.8686 3.8686,4.9 5.1,4.9H14.9C16.1314,4.9 17.1,5.8686 17.1,7.1V9.4241L20.277,7.3944C20.2946,7.3831 20.3129,7.3727 20.3317,7.3634C21.183,6.9377 22.0336,7.6084 22.1884,8.3823C22.1961,8.4211 22.2,8.4605 22.2,8.5V15.5C22.2,15.9623 21.9149,16.3147 21.5977,16.496C21.2751,16.6803 20.8369,16.7393 20.4317,16.5367C20.4151,16.5284 20.399,16.5194 20.3832,16.5096L17.1,14.4687V16.9C17.1,18.1314 16.1314,19.1 14.9,19.1H5.1C3.8686,19.1 2.9,18.1314 2.9,16.9V7.1ZM5.1,6.1C4.5314,6.1 4.1,6.5314 4.1,7.1V16.9C4.1,17.4687 4.5314,17.9 5.1,17.9H14.9C15.4686,17.9 15.9,17.4687 15.9,16.9V14C15.9,13.6118 16.1639,13.3494 16.357,13.2287C16.5583,13.1029 16.9132,12.9858 17.2683,13.1634C17.2849,13.1716 17.301,13.1807 17.3168,13.1905L20.9736,15.4636C20.98,15.4631 20.9898,15.4608 21,15.4554V8.5758C20.9779,8.5148 20.9389,8.4731 20.9038,8.452C20.8893,8.4433 20.8783,8.4398 20.8719,8.4383L17.323,10.7056C17.3054,10.7169 17.2871,10.7273 17.2683,10.7367C16.9994,10.8711 16.6756,10.8711 16.4067,10.7367C16.1076,10.5872 15.9,10.282 15.9,9.9V7.1C15.9,6.5314 15.4686,6.1 14.9,6.1H5.1Z" fill="#767676" fill-rule="1"/>
</svg>