<?xml version="1.0" encoding="utf-8" standalone="no"?><svg xmlns:aapt="http://schemas.android.com/aapt" xmlns:android="http://schemas.android.com/apk/res/android" xmlns:app="http://schemas.android.com/apk/res-auto" height="24" width="24" xmlns="http://www.w3.org/2000/svg">
    <path d="M20.63,7.935l-3.667,2.277c-0.202,0.126 -0.463,-0.02 -0.463,-0.256v-2.84c0,-0.892 -0.723,-1.616 -1.615,-1.616h-9.77c-0.891,0 -1.615,0.724 -1.615,1.616v9.769c0,0.892 0.724,1.615 1.615,1.615h9.77c0.892,0 1.615,-0.723 1.615,-1.615v-2.84c0,-0.237 0.26,-0.382 0.463,-0.256l3.668,2.277c0.399,0.2 0.869,-0.091 0.869,-0.537V8.472c0,-0.446 -0.47,-0.737 -0.87,-0.537z" fill="#000000" fill-opacity="0.0" fill-rule="1" stroke="#767676" stroke-width="1.2"/>
</svg>