<?xml version="1.0" encoding="utf-8" standalone="no"?><svg xmlns:aapt="http://schemas.android.com/aapt" xmlns:android="http://schemas.android.com/apk/res/android" xmlns:app="http://schemas.android.com/apk/res-auto" height="24" width="24" xmlns="http://www.w3.org/2000/svg">
	<defs>
    <linearGradient id="grad1" x1="0%" y1="100%" x2="100%" y2="0%">
      <stop offset="0%" style="stop-color:rgb(254,105,133);stop-opacity:1" />
      <stop offset="100%" style="stop-color:rgb(255,142,136);stop-opacity:1" />
    </linearGradient>
  </defs>
    <path d="M21.5303,7.4502C21.3566,7.3415 21.1578,7.2796 20.9531,7.2705C20.7484,7.2615 20.5449,7.3055 20.3623,7.3984C20.3458,7.4063 20.3298,7.4151 20.3144,7.4248L17.0996,9.4209V7.1152C17.0991,6.528 16.8656,5.9649 16.4503,5.5497C16.0351,5.1344 15.472,4.9009 14.8848,4.9004H5.1152C4.528,4.9009 3.9649,5.1344 3.5497,5.5497C3.1344,5.9649 2.9009,6.528 2.9004,7.1152V16.8848C2.9009,17.472 3.1344,18.0351 3.5497,18.4503C3.9649,18.8656 4.528,19.0991 5.1152,19.0996H14.8848C15.472,19.0991 16.0351,18.8656 16.4503,18.4503C16.8656,18.0351 17.0991,17.472 17.0996,16.8848V14.5791L20.3623,16.6016C20.5453,16.6933 20.7486,16.7366 20.9531,16.7276C21.1576,16.7185 21.3563,16.6573 21.5304,16.5497C21.7045,16.4421 21.8482,16.2918 21.9479,16.113C22.0475,15.9343 22.0997,15.733 22.0996,15.5283V8.4717C22.1005,8.2668 22.0486,8.0652 21.9489,7.8863C21.8491,7.7074 21.705,7.5572 21.5303,7.4502Z" fill="url(#grad1)"/>
</svg>