<?xml version="1.0" encoding="utf-8" standalone="no"?><svg xmlns:aapt="http://schemas.android.com/aapt" xmlns:android="http://schemas.android.com/apk/res/android" xmlns:app="http://schemas.android.com/apk/res-auto" height="18" width="24" xmlns="http://www.w3.org/2000/svg">
    <path d="M20,0C22.2091,0 24,1.7909 24,4L24,14C24,16.2091 22.2091,18 20,18L4,18C1.7909,18 0,16.2091 0,14L0,4C0,1.7909 1.7909,0 4,0L20,0ZM20,1L4,1C2.3431,1 1,2.3431 1,4L1,14C1,15.6569 2.3431,17 4,17L20,17C21.6569,17 23,15.6569 23,14L23,4C23,2.3431 21.6569,1 20,1ZM8.4999,9.5C11.0391,9.5 12.6965,10.9392 13.4721,13.8176C13.6069,14.3179 13.3106,14.8329 12.8102,14.9677C12.7306,14.9891 12.6485,15 12.5661,15L4.4337,15C3.9155,15 3.4954,14.5799 3.4954,14.0617C3.4954,13.9792 3.5062,13.8971 3.5277,13.8175C4.3033,10.9392 5.9607,9.5 8.4999,9.5ZM17,8C17.2761,8 17.5,8.2239 17.5,8.5C17.5,8.7761 17.2761,9 17,9L14,9C13.7239,9 13.5,8.7761 13.5,8.5C13.5,8.2239 13.7239,8 14,8L17,8ZM8.5,3.5C9.8807,3.5 11,4.6193 11,6C11,7.3807 9.8807,8.5 8.5,8.5C7.1193,8.5 6,7.3807 6,6C6,4.6193 7.1193,3.5 8.5,3.5ZM20,6C20.2761,6 20.5,6.2239 20.5,6.5C20.5,6.7761 20.2761,7 20,7L14,7C13.7239,7 13.5,6.7761 13.5,6.5C13.5,6.2239 13.7239,6 14,6L20,6ZM20,4C20.2761,4 20.5,4.2239 20.5,4.5C20.5,4.7761 20.2761,5 20,5L14,5C13.7239,5 13.5,4.7761 13.5,4.5C13.5,4.2239 13.7239,4 14,4L20,4Z" fill="#7daf58"/>
</svg>