<?xml version="1.0" encoding="utf-8" standalone="no"?><svg xmlns:aapt="http://schemas.android.com/aapt" xmlns:android="http://schemas.android.com/apk/res/android" xmlns:app="http://schemas.android.com/apk/res-auto" height="26" width="26" xmlns="http://www.w3.org/2000/svg">
    <path  d="M6,3L20,3A5,5 0,0 1,25 8L25,18A5,5 0,0 1,20 23L6,23A5,5 0,0 1,1 18L1,8A5,5 0,0 1,6 3z" fill="#000000" fill-opacity="0.0" fill-rule="1" stroke="#767676" stroke-width="1.5"/>
    <path  d="M10,9.889v6.222a0.8,0.8 0,0 0,1.195 0.696l5.486,-3.111a0.8,0.8 0,0 0,0 -1.392l-5.486,-3.111A0.8,0.8 0,0 0,10 9.889z" fill="#000000" fill-opacity="0.0" fill-rule="1" stroke="#767676" stroke-width="1.5"/>
</svg>