<?xml version="1.0" encoding="utf-8" standalone="no"?><svg xmlns:aapt="http://schemas.android.com/aapt" xmlns:android="http://schemas.android.com/apk/res/android" xmlns:app="http://schemas.android.com/apk/res-auto" height="48" width="48" xmlns="http://www.w3.org/2000/svg">
	<defs>
    <linearGradient id="grad1" x1="50%" y1="0%" x2="50%" y2="100%">
      <stop offset="0%" style="stop-color:rgb(146,234,82);stop-opacity:1" />
      <stop offset="100%" style="stop-color:rgb(74,150,26);stop-opacity:1" />
    </linearGradient>
  </defs>
    <path d="M23.9646,47.9292C10.7293,47.9292 0,37.1999 0,23.9646C0,10.7293 10.7293,0 23.9646,0C37.1999,0 47.9292,10.7293 47.9292,23.9646C47.9292,37.1999 37.1999,47.9292 23.9646,47.9292Z" fill="url(#grad1)" fill-rule="1" stroke="#00000000" stroke-width="1"/>
    <g>
        <path d="M29.5,12C31.7091,12 33.5,13.7909 33.5,16L33.5,32C33.5,34.2091 31.7091,36 29.5,36L14.5,36L14.5,12L29.5,12ZM18.5882,19.7888C18.1831,20.8388 19.1838,22.9814 21.3799,25.7042C23.576,28.427 27.2962,29.8746 28.3087,29.4162C29.3213,28.9577 29.5382,27.9669 29.4949,27.5084C29.4515,27.05 27.1515,25.6451 26.5729,25.3789C25.9943,25.1127 25.3289,25.9704 25.0107,26.3401C24.678,26.6951 23.405,25.6155 22.8554,25.0683C22.8554,25.0683 21.4089,23.412 21.7416,23.0571C22.0743,22.7021 22.8988,21.9923 22.6095,21.4155C22.3202,20.8388 20.8592,18.5317 20.3963,18.5022C19.9479,18.4726 18.9932,18.7388 18.5882,19.7888Z" fill="#ffffff" fill-rule="1" stroke="#00000000" stroke-width="1"/>
    </g>
</svg>