<?xml version="1.0" encoding="utf-8" standalone="no"?><svg xmlns:aapt="http://schemas.android.com/aapt" xmlns:android="http://schemas.android.com/apk/res/android" xmlns:app="http://schemas.android.com/apk/res-auto" height="48" width="48" xmlns="http://www.w3.org/2000/svg">
    <path d="M28.571,12L30.8,15L33.1542,15C34.4914,15 34.9764,15.1392 35.4653,15.4007C35.9542,15.6622 36.3378,16.0458 36.5993,16.5347C36.8608,17.0236 37,17.5085 37,18.8458L37,31.1542C37,32.4914 36.8608,32.9764 36.5993,33.4653C36.3378,33.9542 35.9542,34.3378 35.4653,34.5993C34.9764,34.8608 34.4914,35 33.1542,35L14.8458,35C13.5085,35 13.0236,34.8608 12.5347,34.5993C12.0458,34.3378 11.6622,33.9542 11.4007,33.4653C11.1392,32.9764 11,32.4914 11,31.1542L11,18.8458C11,17.5085 11.1392,17.0236 11.4007,16.5347C11.6622,16.0458 12.0458,15.6622 12.5347,15.4007C13.0236,15.1392 13.5085,15 14.8458,15L17.113,15L19.1975,12L28.571,12ZM24.0003,19.5C20.967,19.5 18.5,21.9671 18.5,25.0003C18.5,28.0332 20.967,30.5 24.0003,30.5C25.9174,30.5 27.6688,29.5055 28.6678,27.9065C29.2086,27.0408 29.5,26.0407 29.5,25.0003C29.4997,23.8496 29.1432,22.7496 28.4907,21.8282C27.4655,20.3803 25.8045,19.5 24.0003,19.5ZM24.0003,21C25.3026,21 26.5136,21.6316 27.2666,22.695C27.7444,23.3699 27.9998,24.1686 28,25.0007C28,25.7527 27.7912,26.4785 27.3956,27.1117C26.6622,28.2857 25.3843,29 24.0003,29C21.7954,29 20,27.2048 20,25.0003C20,22.7955 21.7955,21 24.0003,21Z" fill="#767676" fill-rule="1"/>
</svg>