<?xml version="1.0" encoding="utf-8" standalone="no"?><svg xmlns:aapt="http://schemas.android.com/aapt" xmlns:android="http://schemas.android.com/apk/res/android" xmlns:app="http://schemas.android.com/apk/res-auto" height="32" width="46" xmlns="http://www.w3.org/2000/svg">
    <path d="M30.8106,6.1284L31.8531,7.0629C32.9541,8.05 32.9879,9.8037 31.9562,10.954L29.8573,13.2852L29.836,13.2661L20.8719,23.2263C20.407,23.745 19.8338,24.1528 19.2007,24.4164L18.9605,24.5084L13.52,26.4123L13.8283,25.0845L14.8235,20.7986C15.0026,20.0245 15.3577,19.3098 15.8694,18.7388L15.8694,18.7388L25.728,7.7862L25.748,7.8041L26.954,6.4662C27.9867,5.3148 29.7116,5.1417 30.8106,6.1284ZM25.8411,9.9026L16.9854,19.7411C16.6502,20.1151 16.4089,20.6008 16.2848,21.1373L16.2848,21.1373L15.5978,24.096L18.4646,23.0928C18.9527,22.9216 19.3997,22.6215 19.756,22.224L19.756,22.224L28.6105,12.3868L25.8411,9.9026ZM28.0697,7.4688L26.9749,8.6847L29.7444,11.1688L30.8405,9.9514C31.3332,9.4021 31.3177,8.5975 30.8518,8.1798L29.809,7.245C29.3502,6.8331 28.5696,6.9115 28.0697,7.4688Z" fill="#2796de"/>
</svg>