<?xml version="1.0" encoding="utf-8" standalone="no"?><svg xmlns:aapt="http://schemas.android.com/aapt" xmlns:android="http://schemas.android.com/apk/res/android" xmlns:app="http://schemas.android.com/apk/res-auto" height="36" width="37" xmlns="http://www.w3.org/2000/svg">
    <path d="M18.5,6.25c5.397,0 8.592,1.133 10.24,3.504 1.279,1.837 1.51,3.615 1.51,8.246 0,4.392 -0.293,6.397 -1.616,8.253 -1.682,2.36 -4.862,3.497 -10.134,3.497 -5.262,0 -8.45,-1.157 -10.135,-3.539 -1.279,-1.806 -1.596,-3.747 -1.614,-7.811v-0.808c0.014,-4.276 0.27,-6.006 1.507,-7.796C9.91,7.403 13.114,6.25 18.5,6.25zM18.5,7.75c-4.943,0 -7.689,0.988 -9.008,2.898C8.46,12.142 8.25,13.751 8.25,18c0,4.024 0.265,5.827 1.34,7.345 1.353,1.913 4.087,2.905 8.91,2.905 4.836,0 7.564,-0.975 8.912,-2.867 1.075,-1.508 1.338,-3.308 1.338,-7.383 0,-4.3 -0.209,-5.906 -1.24,-7.39 -1.314,-1.889 -4.055,-2.86 -9.01,-2.86zM23.886,19.54a0.6,0.6 0,0 1,0.073 0.846c-0.168,0.2 -0.348,0.388 -0.538,0.56l0.196,0.541a2.85,2.85 0,0 1,-5.292 2.111l-0.064,-0.161 -0.31,-0.85c-2.115,-0.107 -3.765,-0.838 -4.91,-2.201a0.6,0.6 0,1 1,0.918 -0.772c0.998,1.187 2.494,1.786 4.541,1.786s3.543,-0.599 4.54,-1.786a0.6,0.6 0,0 1,0.846 -0.073zM22.412,21.681c-0.897,0.515 -1.962,0.812 -3.187,0.895l0.164,0.45a1.65,1.65 0,0 0,3.146 -0.985l-0.045,-0.143 -0.078,-0.217zM23.25,13c0.69,0 1.25,0.895 1.25,2s-0.56,2 -1.25,2S22,16.105 22,15s0.56,-2 1.25,-2zM13.75,13c0.69,0 1.25,0.895 1.25,2s-0.56,2 -1.25,2 -1.25,-0.895 -1.25,-2 0.56,-2 1.25,-2z" fill="#fa6a00" fill-rule="0"/>
</svg>