<?xml version="1.0" encoding="utf-8" standalone="no"?><svg xmlns:aapt="http://schemas.android.com/aapt" xmlns:android="http://schemas.android.com/apk/res/android" xmlns:app="http://schemas.android.com/apk/res-auto" height="36" width="37" xmlns="http://www.w3.org/2000/svg">
    <path d="M19.5732,10.3839C19.8661,10.6768 19.8661,11.1517 19.5732,11.4445C19.2803,11.7374 18.8055,11.7374 18.5126,11.4445L18.5126,11.4445L15.0251,7.9571L18.5126,4.4697C18.8055,4.1768 19.2803,4.1768 19.5732,4.4697C19.8661,4.7626 19.8661,5.2374 19.5732,5.5303L19.5732,5.5303L18.0959,7.007L18.5351,7.0077C20.2926,7.0077 22.6754,7.5125 24.5218,8.3499L24.8836,8.5217C27.3155,9.7319 29.1415,11.5038 30.2952,13.8926C32.0886,17.6068 31.4416,22.0044 28.6694,25.0071C26.7236,27.113 24.2861,28.3855 21.3716,28.9201C20.8068,29.0237 20.3453,29.0765 19.3688,29.1653L19.3688,29.1653L19.3409,29.1678C19.0247,29.1966 18.8344,29.2144 18.6635,29.2319L18.4609,29.2534L18.332,29.2571C16.3196,29.1527 14.8649,28.9221 13.4465,28.3967C13.1896,28.3025 12.9121,28.3162 12.6497,28.4422C12.1626,28.666 11.74,28.8611 10.9153,29.2428C10.626,29.3767 10.626,29.3767 10.3366,29.5106C9.8802,29.7217 9.5237,29.8863 9.1791,30.0447L9.1791,30.0447L9.1151,30.0747C8.8759,30.1869 8.7431,30.2387 8.5456,30.274C7.4166,30.4762 6.6347,29.5041 6.9474,28.4135C7.0123,28.1868 7.0714,27.9794 7.176,27.6117C7.2473,27.3607 7.2473,27.3607 7.3189,27.1092C7.5678,26.2352 7.7397,25.6442 7.9206,25.0473C7.9928,24.8092 7.9669,24.6665 7.8203,24.4712C6.9722,23.3449 6.3748,22.1529 6.048,20.8672C5.2071,17.5538 5.8988,14.5096 8.0236,11.8242C9.0066,10.579 10.1767,9.5797 11.523,8.8172C11.9074,8.5994 12.3956,8.7346 12.6133,9.119C12.8311,9.5034 12.696,9.9916 12.3115,10.2094C11.1445,10.8704 10.1334,11.7339 9.2789,12.8163C7.4581,15.1175 6.8825,17.6509 7.5988,20.4733C7.8707,21.5432 8.3728,22.5451 9.0993,23.5099C9.5508,24.1118 9.6726,24.7827 9.4518,25.5114C9.274,26.0979 9.1043,26.6814 8.8577,27.5475C8.7863,27.7982 8.7863,27.7982 8.715,28.0492C8.6541,28.2633 8.6086,28.4233 8.5683,28.5646C8.8947,28.4144 9.2354,28.2571 9.6649,28.0584C9.954,27.9247 9.954,27.9247 10.2432,27.7908C11.0693,27.4085 11.4929,27.2128 11.9691,26.9943C12.6077,26.6871 13.3342,26.6512 13.9999,26.8955C15.2259,27.3496 16.5201,27.5577 18.3511,27.6559C18.5776,27.6315 18.7824,27.612 19.196,27.5744L19.196,27.5744L19.2238,27.5719C20.1527,27.4874 20.5811,27.4384 21.0829,27.3463C23.6683,26.8721 25.7922,25.7633 27.494,23.9215C29.8194,21.4028 30.3625,17.7117 28.8544,14.5883C27.8604,12.5303 26.295,11.0112 24.1707,9.9541C22.5108,9.1278 20.1688,8.6077 18.5351,8.6077L18.5351,8.6077L17.7959,8.607Z" fill="#2a9fb5" fill-rule="0" stroke="#00000000" stroke-width="1"/>
</svg>