<?xml version="1.0" encoding="utf-8" standalone="no"?><svg xmlns:aapt="http://schemas.android.com/aapt" xmlns:android="http://schemas.android.com/apk/res/android" xmlns:app="http://schemas.android.com/apk/res-auto" height="32" width="32" xmlns="http://www.w3.org/2000/svg">
    <path d="M18.725,4.75h-5.437c-0.914,0 -1.77,0.45 -2.286,1.204L9.68,7.881h-0.394l-1.003,0.001C5.779,7.882 3.75,9.912 3.75,12.415L3.75,22.86c0,2.503 2.03,4.532 4.533,4.532L23.73,27.392c2.504,0 4.533,-2.029 4.533,-4.532L28.263,12.415c0,-2.504 -2.03,-4.533 -4.533,-4.533l-1.398,-0.001 -0.224,-0.326 -1.097,-1.6C20.494,5.2 19.639,4.75 18.725,4.75z" fill="#000000" fill-opacity="0.0" fill-rule="1" stroke="#767676" stroke-width="1.5"/>
    <path d="M11.254,17.007c0,-2.621 2.132,-4.753 4.753,-4.753 1.559,0 2.994,0.761 3.88,2.012 0.563,0.796 0.871,1.746 0.871,2.74 0,0.9 -0.251,1.764 -0.719,2.512 -0.863,1.381 -2.376,2.24 -4.032,2.24 -2.621,0 -4.753,-2.13 -4.753,-4.751z" fill="#000000" fill-opacity="0.0" fill-rule="1" stroke="#767676" stroke-width="1.5"/>
</svg>