<?xml version="1.0" encoding="utf-8" standalone="no"?><svg xmlns:aapt="http://schemas.android.com/aapt" xmlns:android="http://schemas.android.com/apk/res/android" xmlns:app="http://schemas.android.com/apk/res-auto" height="25" width="24" xmlns="http://www.w3.org/2000/svg">
    <path d="M12,1.7077C16.7371,1.7077 19.5342,2.6991 20.9734,4.7687C22.0546,6.3235 22.2787,7.8352 22.2917,11.626L22.2914,12.3788C22.2742,15.9743 21.9968,17.6691 20.8795,19.237C19.4112,21.2975 16.6277,22.2923 12,22.2923C7.3817,22.2923 4.5915,21.2799 3.1194,19.2001C2.0059,17.6271 1.7266,15.931 1.7086,12.3869L1.7084,11.6187C1.7218,7.8802 1.9478,6.3658 3.0256,4.8055C4.4684,2.7167 7.2725,1.7077 12,1.7077ZM12,2.9077C7.6269,2.9077 5.1889,3.785 4.0129,5.4875C3.0938,6.8182 2.9077,8.2429 2.9077,12C2.9077,15.558 3.1421,17.1552 4.0988,18.5069C5.3056,20.2117 7.7325,21.0923 12,21.0923C16.2784,21.0923 18.7009,20.2265 19.9023,18.5406C20.8262,17.244 21.0754,15.7127 21.0915,12.3656L21.0917,11.6394C21.0796,8.1057 20.8777,6.7329 19.9882,5.4538C18.8174,3.7702 16.384,2.9077 12,2.9077ZM16.8216,14.368C16.5238,16.7766 14.6621,18.1678 11.9983,18.1678C9.3345,18.1678 7.4497,16.7514 7.1751,14.368C6.9004,11.9846 9.3345,13.2011 11.9983,13.2011C14.6621,13.2011 17.1194,11.9594 16.8216,14.368ZM12,14.131C10.4832,14.131 8.1551,13.6306 8.1551,14.18C8.1551,14.7293 10.4832,15.1315 12,15.1315C13.5168,15.1315 15.8449,14.7293 15.8449,14.18C15.8449,13.6306 13.5168,14.131 12,14.131ZM16.1853,6.7133C16.7936,6.7133 17.2867,7.5023 17.2867,8.4755C17.2867,9.4488 16.7936,10.2378 16.1853,10.2378C15.577,10.2378 15.0839,9.4488 15.0839,8.4755C15.0839,7.5023 15.577,6.7133 16.1853,6.7133ZM7.8147,6.7133C8.423,6.7133 8.9161,7.5023 8.9161,8.4755C8.9161,9.4488 8.423,10.2378 7.8147,10.2378C7.2064,10.2378 6.7133,9.4488 6.7133,8.4755C6.7133,7.5023 7.2064,6.7133 7.8147,6.7133Z" fill="?attr/NormalIcon3"/>
</svg>