<?xml version="1.0" encoding="UTF-8"?>
<svg xmlns="http://www.w3.org/2000/svg" xmlns:xlink="http://www.w3.org/1999/xlink" width="60px" height="60px" viewBox="0 0 60 60" version="1.1">
<g id="surface1">
<path style="fill-rule:nonzero;fill:rgb(80%,90.196078%,100%);fill-opacity:1;stroke-width:0;stroke-linecap:butt;stroke-linejoin:miter;stroke:rgb(0%,0%,0%);stroke-opacity:1;stroke-miterlimit:4;" d="M 0 60 C 0 26.859375 26.859375 0 60 0 C 93.140625 0 120 26.859375 120 60 C 120 93.140625 93.140625 120 60 120 C 26.859375 120 0 93.140625 0 60 " transform="matrix(0.5,0,0,0.5,0,0)"/>
<path style="fill-rule:nonzero;fill:rgb(0%,0%,0%);fill-opacity:1;stroke-width:0.2;stroke-linecap:butt;stroke-linejoin:miter;stroke:rgb(0%,0%,0%);stroke-opacity:1;stroke-miterlimit:4;" d="M 37 28 L 83 28 C 85.210938 28 87 29.789062 87 32 L 87 88 C 87 90.210938 85.210938 92 83 92 L 37 92 C 34.789062 92 33 90.210938 33 88 L 33 32 C 33 29.789062 34.789062 28 37 28 Z M 37 28 " transform="matrix(0.5,0,0,0.5,0,0)"/>
<path style="fill-rule:nonzero;fill:rgb(100%,100%,100%);fill-opacity:1;stroke-width:0.2;stroke-linecap:butt;stroke-linejoin:miter;stroke:rgb(0%,0%,0%);stroke-opacity:1;stroke-miterlimit:4;" d="M 37 28 L 83 28 C 85.210938 28 87 29.789062 87 32 L 87 88 C 87 90.210938 85.210938 92 83 92 L 37 92 C 34.789062 92 33 90.210938 33 88 L 33 32 C 33 29.789062 34.789062 28 37 28 Z M 37 28 " transform="matrix(0.5,0,0,0.5,0,0)"/>
<path style="fill-rule:nonzero;fill:rgb(0%,0%,33.333333%);fill-opacity:1;stroke-width:0.2;stroke-linecap:butt;stroke-linejoin:miter;stroke:rgb(0%,0%,0%);stroke-opacity:1;stroke-miterlimit:4;" d="M 48 70 C 50.210938 70 52 71.789062 52 74 C 52 76.210938 50.210938 78 48 78 C 45.789062 78 44 76.210938 44 74 C 44 71.789062 45.789062 70 48 70 Z M 66 75.25 C 66.414062 75.25 66.75 75.585938 66.75 76 C 66.75 76.414062 66.414062 76.75 66 76.75 L 56 76.75 C 55.585938 76.75 55.25 76.414062 55.25 76 C 55.25 75.585938 55.585938 75.25 56 75.25 Z M 76 71.25 C 76.414062 71.25 76.75 71.585938 76.75 72 C 76.75 72.382812 76.46875 72.695312 76.101562 72.742188 L 76 72.75 L 56 72.75 C 55.585938 72.75 55.25 72.414062 55.25 72 C 55.25 71.617188 55.53125 71.304688 55.898438 71.257812 L 56 71.25 Z M 48 56 C 50.210938 56 52 57.789062 52 60 C 52 62.210938 50.210938 64 48 64 C 45.789062 64 44 62.210938 44 60 C 44 57.789062 45.789062 56 48 56 Z M 66 61.25 C 66.414062 61.25 66.75 61.585938 66.75 62 C 66.75 62.382812 66.46875 62.695312 66.101562 62.742188 L 66 62.75 L 56 62.75 C 55.585938 62.75 55.25 62.414062 55.25 62 C 55.25 61.617188 55.53125 61.304688 55.898438 61.257812 L 56 61.25 Z M 76 57.25 C 76.414062 57.25 76.75 57.585938 76.75 58 C 76.75 58.382812 76.46875 58.695312 76.101562 58.742188 L 76 58.75 L 56 58.75 C 55.585938 58.75 55.25 58.414062 55.25 58 C 55.25 57.617188 55.53125 57.304688 55.898438 57.257812 L 56 57.25 Z M 48 42 C 50.210938 42 52 43.789062 52 46 C 52 48.210938 50.210938 50 48 50 C 45.789062 50 44 48.210938 44 46 C 44 43.789062 45.789062 42 48 42 Z M 66 47.25 C 66.414062 47.25 66.75 47.585938 66.75 48 C 66.75 48.382812 66.46875 48.695312 66.101562 48.742188 L 66 48.75 L 56 48.75 C 55.585938 48.75 55.25 48.414062 55.25 48 C 55.25 47.617188 55.53125 47.304688 55.898438 47.257812 L 56 47.25 Z M 76 43.25 C 76.414062 43.25 76.75 43.585938 76.75 44 C 76.75 44.382812 76.46875 44.695312 76.101562 44.742188 L 76 44.75 L 56 44.75 C 55.585938 44.75 55.25 44.414062 55.25 44 C 55.25 43.617188 55.53125 43.304688 55.898438 43.257812 L 56 43.25 Z M 76 43.25 " transform="matrix(0.5,0,0,0.5,0,0)"/>
</g>
</svg>
