<?xml version="1.0" encoding="utf-8" standalone="no"?><svg xmlns:aapt="http://schemas.android.com/aapt" xmlns:android="http://schemas.android.com/apk/res/android" xmlns:app="http://schemas.android.com/apk/res-auto" height="66" width="185" xmlns="http://www.w3.org/2000/svg">
    <path d="M53.24,0.74L1.48,0.74v11.09h35.9L1.92,55.75C0.54,57.637 -0.138,59.946 0,62.28v2.79h48.8c2.452,0 4.44,-1.988 4.44,-4.44v-5.91L15.57,54.72l33.27,-41.78c0.46,-0.61 1.44,-1.72 1.86,-2.19l0.23,-0.27c1.65,-2.39 2.462,-5.26 2.31,-8.16L53.24,0.74zM119,65.07h7.4L126.4,0h-11.06v61.37c0,2.028 1.632,3.678 3.66,3.7zM96.1,16.39v3.4c-10.412,-7.577 -24.865,-6.066 -33.485,3.501 -8.619,9.568 -8.619,24.1 0,33.668 8.62,9.567 23.073,11.078 33.485,3.501v0.17c0,2.452 1.988,4.44 4.44,4.44h5.93L106.47,16.39L96.1,16.39zM81.33,54.92c-8.118,0.008 -14.725,-6.53 -14.804,-14.647 -0.078,-8.118 6.401,-14.781 14.518,-14.93 8.117,-0.15 14.836,6.272 15.056,14.387v0.8c-0.211,8.006 -6.761,14.387 -14.77,14.39zM159.22,14.68c-10.294,0 -19.574,6.2 -23.513,15.71 -3.939,9.51 -1.762,20.457 5.517,27.736s18.225,9.456 27.735,5.517c9.51,-3.94 15.711,-13.22 15.711,-23.513 0.003,-6.75 -2.678,-13.225 -7.451,-17.999 -4.774,-4.773 -11.248,-7.454 -17.999,-7.451zM159.22,55.09c-8.284,0 -15,-6.716 -15,-15 0,-8.284 6.716,-15 15,-15 8.284,0 15,6.716 15,15 0,3.978 -1.58,7.794 -4.393,10.607 -2.813,2.813 -6.629,4.393 -10.607,4.393z" fill="#0068ff"/>
</svg>