<?xml version="1.0" encoding="UTF-8"?>
<svg xmlns="http://www.w3.org/2000/svg" xmlns:xlink="http://www.w3.org/1999/xlink" width="120pt" height="43pt" viewBox="0 0 120 43" version="1.1">
<g id="surface1">
<path style=" stroke:none;fill-rule:nonzero;fill:rgb(0%,40.784314%,100%);fill-opacity:1;" d="M 34.535156 0.480469 L 0.960938 0.480469 L 0.960938 7.707031 L 24.246094 7.707031 L 1.246094 36.320312 C 0.351562 37.550781 -0.0898438 39.054688 0 40.578125 L 0 42.394531 L 31.652344 42.394531 C 33.246094 42.394531 34.535156 41.097656 34.535156 39.5 L 34.535156 35.652344 L 10.097656 35.652344 L 31.679688 8.429688 C 31.976562 8.03125 32.613281 7.308594 32.886719 7.003906 L 33.035156 6.828125 C 34.105469 5.269531 34.632812 3.402344 34.535156 1.511719 Z M 77.1875 42.394531 L 81.988281 42.394531 L 81.988281 0 L 74.816406 0 L 74.816406 39.984375 C 74.816406 41.304688 75.875 42.378906 77.1875 42.394531 Z M 62.335938 10.679688 L 62.335938 12.894531 C 55.582031 7.957031 46.207031 8.941406 40.613281 15.175781 C 35.023438 21.40625 35.023438 30.875 40.613281 37.109375 C 46.207031 43.34375 55.582031 44.328125 62.335938 39.390625 L 62.335938 39.5 C 62.335938 41.097656 63.625 42.394531 65.214844 42.394531 L 69.0625 42.394531 L 69.0625 10.679688 Z M 52.753906 35.78125 C 47.488281 35.785156 43.203125 31.527344 43.152344 26.238281 C 43.101562 20.949219 47.304688 16.609375 52.570312 16.511719 C 57.835938 16.414062 62.191406 20.597656 62.335938 25.882812 L 62.335938 26.40625 C 62.199219 31.621094 57.949219 35.777344 52.753906 35.78125 Z M 103.277344 9.5625 C 96.601562 9.5625 90.582031 13.605469 88.027344 19.800781 C 85.472656 25.996094 86.882812 33.128906 91.605469 37.871094 C 96.328125 42.613281 103.425781 44.03125 109.59375 41.464844 C 115.765625 38.898438 119.785156 32.851562 119.785156 26.144531 C 119.789062 21.746094 118.050781 17.527344 114.953125 14.417969 C 111.855469 11.308594 107.65625 9.5625 103.277344 9.5625 Z M 103.277344 35.890625 C 97.90625 35.890625 93.546875 31.515625 93.546875 26.121094 C 93.546875 20.722656 97.90625 16.347656 103.277344 16.347656 C 108.652344 16.347656 113.007812 20.722656 113.007812 26.121094 C 113.007812 28.710938 111.984375 31.195312 110.15625 33.03125 C 108.332031 34.863281 105.859375 35.890625 103.277344 35.890625 Z M 103.277344 35.890625 "/>
</g>
</svg>
