<?xml version="1.0" encoding="utf-8" standalone="no"?><svg xmlns:aapt="http://schemas.android.com/aapt" xmlns:android="http://schemas.android.com/apk/res/android" xmlns:app="http://schemas.android.com/apk/res-auto" height="48" width="48" xmlns="http://www.w3.org/2000/svg">
    <path d="M24,24m-24,0a24,24 0,1 1,48 0a24,24 0,1 1,-48 0" fill=""/>
    <path d="M24.823,22.486c-0.828,0.882 -1.971,1.4 -3.18,1.442 -1.207,-0.045 -2.348,-0.564 -3.173,-1.446 -0.825,-0.882 -1.268,-2.054 -1.232,-3.261 -0.04,-1.21 0.402,-2.385 1.227,-3.27 0.826,-0.885 1.968,-1.406 3.177,-1.451 1.21,0.045 2.354,0.566 3.182,1.45 0.828,0.884 1.272,2.06 1.237,3.27 0.035,1.21 -0.41,2.384 -1.238,3.266zM29.9,24.625c0.368,-0.01 0.73,-0.093 1.066,-0.243 0.336,-0.15 0.64,-0.366 0.892,-0.633 0.253,-0.267 0.45,-0.582 0.581,-0.926 0.132,-0.344 0.194,-0.71 0.183,-1.078 0,-0.722 -0.287,-1.414 -0.797,-1.924s-1.203,-0.798 -1.925,-0.798 -1.414,0.287 -1.924,0.798c-0.511,0.51 -0.798,1.202 -0.798,1.924 -0.01,0.368 0.052,0.734 0.183,1.078 0.131,0.344 0.329,0.659 0.581,0.926 0.253,0.268 0.556,0.483 0.892,0.633 0.336,0.15 0.698,0.233 1.066,0.243zM16.448,26.464c1.535,-1.015 3.358,-1.504 5.194,-1.392 4.734,0 7.68,2.827 8.508,5.628 0.144,0.47 0.177,0.966 0.095,1.45 -0.083,0.484 -0.277,0.942 -0.568,1.337 -0.222,0.31 -0.514,0.564 -0.852,0.74 -0.338,0.176 -0.713,0.27 -1.095,0.273L15.554,34.5c-0.38,-0.006 -0.755,-0.1 -1.093,-0.276 -0.338,-0.176 -0.63,-0.428 -0.853,-0.736 -0.288,-0.397 -0.481,-0.855 -0.563,-1.339 -0.082,-0.483 -0.051,-0.98 0.09,-1.45 0.616,-1.733 1.778,-3.22 3.313,-4.235zM29.722,25.837c0.153,-0.091 0.329,-0.137 0.507,-0.134 4.34,0.224 5.417,4.274 5.615,5.497 0.031,0.163 0.027,0.331 -0.014,0.493 -0.041,0.161 -0.117,0.311 -0.223,0.44 -0.108,0.128 -0.243,0.232 -0.395,0.302 -0.152,0.07 -0.318,0.107 -0.486,0.106h-2.433c-0.119,0.002 -0.237,-0.02 -0.348,-0.064 -0.11,-0.044 -0.212,-0.11 -0.297,-0.193 -0.086,-0.083 -0.154,-0.182 -0.201,-0.291 -0.047,-0.11 -0.072,-0.227 -0.074,-0.346 -0.139,-1.645 -0.808,-3.2 -1.907,-4.432 -0.112,-0.138 -0.182,-0.306 -0.2,-0.484 -0.02,-0.177 0.014,-0.356 0.095,-0.515 0.083,-0.158 0.208,-0.289 0.361,-0.38z" fill="#fff" fill-rule="1"/>
</svg>