<?xml version="1.0" encoding="utf-8" standalone="no"?><svg xmlns:aapt="http://schemas.android.com/aapt" xmlns:android="http://schemas.android.com/apk/res/android" xmlns:app="http://schemas.android.com/apk/res-auto" height="24" width="24" xmlns="http://www.w3.org/2000/svg">
    <path d="M3.837,13.948c0.22,0.021 0.42,0.176 0.486,0.398 0.155,0.486 0.354,0.973 0.598,1.416 0.11,0.199 0.088,0.464 -0.067,0.641 -0.31,0.354 -0.575,0.664 -0.818,0.952 -0.31,0.376 -0.288,0.907 0.066,1.239L5.408,19.898c0.332,0.332 0.885,0.376 1.24,0.067 0.287,-0.244 0.619,-0.51 0.95,-0.82 0.178,-0.154 0.421,-0.176 0.642,-0.065 0.443,0.243 0.93,0.442 1.416,0.575 0.222,0.066 0.377,0.265 0.399,0.487 0.022,0.442 0.066,0.863 0.088,1.239 0.044,0.486 0.443,0.84 0.93,0.84h1.858c0.487,0 0.885,-0.354 0.93,-0.84 0.043,-0.376 0.066,-0.797 0.088,-1.24 0.022,-0.22 0.177,-0.42 0.398,-0.486 0.487,-0.133 0.973,-0.332 1.416,-0.575 0.2,-0.111 0.465,-0.089 0.642,0.066 0.331,0.288 0.663,0.575 0.951,0.819 0.376,0.31 0.907,0.287 1.239,-0.067l1.305,-1.305c0.332,-0.332 0.376,-0.885 0.067,-1.24 -0.244,-0.287 -0.51,-0.597 -0.819,-0.95 -0.155,-0.2 -0.177,-0.443 -0.066,-0.642 0.243,-0.443 0.442,-0.93 0.575,-1.416 0.066,-0.222 0.265,-0.377 0.487,-0.399 0.442,-0.022 0.863,-0.066 1.239,-0.088 0.486,-0.044 0.84,-0.443 0.84,-0.93L22.223,11.072c0,-0.487 -0.354,-0.885 -0.84,-0.93 -0.376,-0.044 -0.797,-0.066 -1.24,-0.088 -0.22,-0.022 -0.42,-0.177 -0.486,-0.398 -0.133,-0.487 -0.332,-0.974 -0.575,-1.416 -0.11,-0.2 -0.089,-0.465 0.066,-0.642 0.31,-0.354 0.575,-0.664 0.819,-0.951 0.31,-0.376 0.287,-0.907 -0.067,-1.24l-1.305,-1.305c-0.332,-0.332 -0.885,-0.376 -1.239,-0.066 -0.288,0.243 -0.597,0.509 -0.951,0.819 -0.2,0.154 -0.443,0.177 -0.642,0.066 -0.443,-0.243 -0.93,-0.443 -1.416,-0.575 -0.221,-0.067 -0.376,-0.266 -0.398,-0.487 -0.022,-0.443 -0.067,-0.863 -0.089,-1.24 -0.044,-0.486 -0.442,-0.84 -0.929,-0.84L11.071,1.779c-0.486,0 -0.885,0.354 -0.929,0.84 -0.044,0.377 -0.066,0.797 -0.088,1.24 -0.022,0.221 -0.177,0.42 -0.399,0.487 -0.486,0.132 -0.973,0.332 -1.416,0.575 -0.199,0.11 -0.464,0.088 -0.641,-0.066 -0.354,-0.31 -0.664,-0.576 -0.952,-0.82 -0.376,-0.309 -0.907,-0.287 -1.239,0.067L4.102,5.408c-0.332,0.332 -0.376,0.885 -0.066,1.239 0.243,0.287 0.509,0.597 0.818,0.951 0.155,0.177 0.177,0.42 0.067,0.642 -0.244,0.442 -0.443,0.93 -0.576,1.416 -0.066,0.221 -0.265,0.376 -0.486,0.398 -0.443,0.022 -0.863,0.067 -1.24,0.089 -0.486,0.044 -0.84,0.442 -0.84,0.929v1.859c-0.022,0.486 0.332,0.885 0.819,0.929 0.376,0.044 0.796,0.066 1.239,0.088z" fill="#000000" fill-opacity="0.0" fill-rule="1" stroke="#fff" stroke-width="1.2"/>
    <path d="M12,12m-3.111,0a3.111,3.111 0,1 1,6.222 0a3.111,3.111 0,1 1,-6.222 0" fill="#000000" fill-opacity="0.0" fill-rule="1" stroke="#fff" stroke-width="1.2"/>
</svg>